<?xml version="1.0" encoding="utf-8"?>
<svg version="1.1" xmlns="http://www.w3.org/2000/svg" x="0px" y="0px" viewBox="0 0 800 600" style="enable-background:new 0 0 800 600;">
  <style type="text/css">
	.st0{fill:#FFEB64;stroke:#808080;stroke-width:0.5;stroke-linecap:round;stroke-linejoin:round;}
	.st1{fill:#AC8FC7;stroke:#808080;stroke-width:0.5;stroke-linecap:round;stroke-linejoin:round;}
	.st2{fill:#F8A758;stroke:#808080;stroke-width:0.5;stroke-linecap:round;stroke-linejoin:round;}
	.st3{fill:#8EC79A;stroke:#808080;stroke-width:0.5;stroke-linecap:round;stroke-linejoin:round;}
	.st4{fill:#FBD165;stroke:#808080;stroke-width:0.5;stroke-linecap:round;stroke-linejoin:round;}
	.st5{fill:#89B8E4;stroke:#808080;stroke-width:0.5;stroke-linecap:round;stroke-linejoin:round;}
	.st6{fill:#E89BBD;stroke:#808080;stroke-width:0.5;stroke-linecap:round;stroke-linejoin:round;}
	.st7{fill:#BACE6B;stroke:#808080;stroke-width:0.5;stroke-linecap:round;stroke-linejoin:round;}
	.st8{font-family:'Roboto-Regular';}
	.st9{font-size:14px;}
</style>
  <g id="Greece">
    <path class="st0" d="M218.11,103.232l9.001-0.367l4.345-1.31l1.596,0.088l2.252,0.473l0.927,0.195l2.109-0.004l2.078-0.438 l0.956-0.546l2.23-2.216l1.451-0.655l1.501-0.029l4.677,0.652l0.232,0.032l2.705,2.429l1.71,0.334l0.538-0.355l1.432-1.423 l0.614-0.492l0.355-0.054l0.88,0.05l0.304-0.109l0.234-0.451l0.133-1.044l0.127-0.317l1.729-0.789l3.18,0.714l1.231-0.271 l0.409,2.823l2.078,0.991l0.944,1.037l-0.177,1.078l-1.058,0.938l-1.197,0.471l-2.325,0.517l-2.223-0.129l-0.399,1.044l0.95,1.032 l0.95,3.685l0.69,1.214l2.109,0.774l0.038,1.109l-1.482,3.516l1.051,0.389l1.121-0.042l2.54,0.844l1.128-0.042l1.013,0.603 l1.343-0.006l-1.489,3.511l0.07,2.212l1.634,2.245l-0.798,2.071l0.038,1.108l0.975,0.815l1.336,2.634l0.938,1.03l2.274,1.024 l1.989,1.417l0.032,1.106l1.013,0.605l3.433-0.545l0.462,1.174l-0.177,1.069l0.247,1.139l2.052,2.308l0.279,2.241l0.684,1.208 l2.876,1.348l-0.975,1.813l-0.19,2.381l-0.836,0.961l-2.413,1.14l-0.437,1.243l0.177,1.561l-1.412,1.74l-0.576,2.094l-1.843,2.982 l-2.952,3.021l-0.576,2.091l-1.26,2.197l-2.439,1.355l-2.907,2.805l-1.254,0.891l2.008,1.193l0.462,1.164l-0.177,1.061l0.5,2.259 l-0.177,1.062l-0.792,0.742l-3.218-0.515l-4.586,1.015l-2.179-0.127l-6.125-1.615l-9.064-1.194l-2.356,0.941l-1.248,0.898 l-1.425,1.953l-1.21,0.684l-2.572,0.91l-1.109,0.047l-0.76-0.766l-0.038-1.092l-4.029-2.352l-2.185-0.113l-3.427,0.787 l-2.356,0.951l-1.039-0.376l-1.172-2.348l-0.83-4.473l-1.919-1.812l1.615-3.241l0.158-2.374l-0.975-0.799l-2.394,1.17l-1.641-2.206 l-0.792-3.388l-0.975-0.8l1.546-2.823l0.203-1.281l-0.792-3.395l-1.66-3.523l-2.597-3.226l-1.197-3.679l-0.918-1.229l-2.299,0.538 l-0.817,0.974l-1.216,0.697l-1.121,0.058l-0.741-0.579l-0.202-0.289l0.949-2.359l0.671-1.254l0.272-0.662l0.209-0.99l-0.032-0.837 l-0.266-2.183l0.101-0.754l0.545-0.564l1.273-0.303l0.545-0.307l0.5-0.821l0.241-0.767l0.329-0.676l0.817-0.547l1.641-0.033 l1.4,0.668l1.368,0.336l1.527-1.041l0.589-0.834l0.203-0.398l0.177-0.465l-0.044-0.996l0.367-0.714l0.652-0.452l0.792-0.216 l0.418-0.822l0.564-0.457l0.564-0.324l0.418-0.457l0.323-0.81l0.095-0.627l0.025-0.669l0.108-0.926l0.652-2.797l0.215-1.476 l-0.082-1.58l-0.399-1.406l-0.627-1.132l-1.628-1.981l-1.748-1.657l-0.266-0.604l-0.12-0.65l-0.228-0.608l-0.602-0.492l1.058-1.25 l0.374-1.713L218.11,103.232z" style="fill: rgb(132, 132, 132); stroke: rgb(0, 0, 0); stroke-width: 1px;">
      <title>West Macedonia</title>
    </path>
    <path class="st1" d="M196.665,164.89l1.523-0.726l0.45-0.313l0.26-0.557l0.919-2.595l0.089-0.363l-0.291-1.482l-0.019-0.404 l-0.203-0.883l0.032-0.491l0.285-0.438l0.906-0.277l0.336-0.268l0.684-1.908l0.013-1.64l-0.127-1.6l0.279-1.823l0.481-0.777 l0.665-0.467l0.671-0.348l0.481-0.43l0.178-0.442l0.202,0.289l0.741,0.579l1.121-0.058l1.216-0.697l0.817-0.974l2.299-0.538 l0.918,1.229l1.197,3.679l2.597,3.226l1.66,3.523l0.792,3.395l-0.203,1.281l-1.546,2.823l0.975,0.8l0.792,3.388l1.641,2.206 l2.394-1.17l0.975,0.799l-0.158,2.374l-1.615,3.241l1.919,1.812l0.83,4.473l1.172,2.348l1.039,0.376l2.356-0.951l3.427-0.787 l2.185,0.113l4.029,2.352l0.038,1.092l-1.678-0.474l-1.178,0.472l-0.602,0.996l-1.21,0.688l-0.633,1.207l-0.386,1.026l1.001,4.708 l0.089,2.181l-1.108,0.051l-0.969-0.797l-2.394-0.143l-1.204,0.684l-0.811,0.961l0.697,2.489l0.089,2.18l0.906,1.218l1.032,0.372 l0.69,1.187l-0.342,2.113l0.519,2.241l-0.811,0.959l-0.165,1.057l0.899,1.216l0.437,1.363l-0.203,1.264l0.437,1.364l2.901,2.38 l0.874,2.724l2.141,1.621l3.199,0.485l1.134-0.257l1.469,1.735l0.931,2.299l-3.186,6.189l0.215,1.325l1.577,2.394l-1.381,0.433 l-3.268,2.727l-2.369,1.144l-1.128,0.258l-7.639,0.136l-1.165,0.469l-1.014,0.92l-0.646,2.06l0.099,0.889l-0.314,0.122 l-1.092,1.221l1.287,1.02l-3.382-0.483v-0.537l-0.753-0.179l-0.718-0.508l-0.564-0.508l-0.264-0.173l-0.728,0.409l-0.589-0.345 l-0.409-0.716l-0.165-0.71h0.12l0.184-0.339l0.534-0.15v-0.537h-0.454l-0.594,0.393l-0.688,0.019l-0.658-0.326l-0.494-0.672h-0.459 l-0.349,0.787l-1.092,0.621l-0.225,0.493l0.259,0.78l0.678,0.15l0.274,0.374l-2.549-0.038l0.918-0.435l-0.105-0.534l-0.025-0.758 l-0.17-0.518l-0.539,0.201l0.015-0.304l-0.06-0.186l-0.035-0.134l0.1-0.096l-0.02-0.403l-0.524-0.086l-0.324,0.112l-0.2,0.25 l-0.209,0.31l0.758-1.728l-0.239-1.315l-0.718-0.474l-0.678,0.781l-0.379-0.538l-0.239,0.567l-0.359,0.438l-0.494,0.333 l-0.623,0.275v0.586l0.898,0.208l-0.239,0.656l-0.02,0.899l-0.219,0.924l-0.449,0.576l-0.489,0.329l-0.439,0.419l-0.249,0.822 l-0.878-0.591l0.045,0.802l0.09,0.358l0.244,0.057l0.499-0.089l2.843,2.343l1.202,0.585l0.374,0.556l0.135,0.556l-0.185,0.249 l-0.534-0.134l-1.102-0.661l-1.8-0.598l-0.389,0.051l-0.544,0.268l-0.03,0.345l-0.618,0.93l-0.723,0.616l-0.354-0.578l-0.184-0.731 l-0.444-0.534l-0.424-0.431l-0.194-0.422l-0.07-0.466l-0.14-0.256l-0.14-0.169l-0.07-0.201l0.135-0.518l0.299-0.316l0.284-0.23 l0.12-0.253l-0.618-2.628l-1.177-1.878l-1.626-1.379l-1.98-1.146l-1.95-1.517l-4.783-6.054l-1.81-1.25l-0.579-0.673l0.219-0.718 l-0.309-0.718l-0.14-0.921l0.08-0.908l0.369-0.68v-0.587l-0.738,0.331l-0.623,0.093l-0.454-0.25l-0.279-0.712l-0.908,0.523 l-0.873-0.039l-0.823-0.43l-0.748-0.642l-1.716,0.732l-2.494-1.271l-1.965-2.34l-0.13-2.464l-0.828-0.794l-0.459-0.999 l-0.658-0.784l-1.406-0.164v-0.54h0.419v-0.492l-0.499-0.627l-0.678-1.225l-0.494-0.354l1.052-0.341l1.277,0.039l0.843-0.219 l-0.21-1.094l-0.593-0.637l-2.369-1.574v-0.492l1.062,0.058l0.763,0.203l0.594-0.058l0.544-0.744v-0.541l-0.633-0.444l-1.077-0.522 l-0.858-0.039l0.025,1.005l-0.539-0.502l-0.703-0.432l-0.703-0.1l0.688-0.638l-1.152-0.28l-1.062-0.116l-0.992,0.087l-0.982,0.309 l0.474-0.641l0.259-0.731l0.1-0.851l-0.03-1.021l0.454,0.538l0.419-0.035l0.414-0.409l0.424-0.58l0.025-0.271l-0.05-1.025 l0.025-0.377l0.12-0.052l0.583-0.413l0.135-0.029l-0.394-1.606l-1.018-0.726l-1.042-0.31l-0.479-0.387l-0.205-0.329l-0.962-0.813 l-0.314-0.161l-0.698-0.178l-0.509-0.387l-0.469-0.565l-2.713-0.62l-1.407-0.539l-0.713-0.465l-0.344,0.061l-0.279-0.058 l0.994-0.626l2.052,0.689l2.439,0.787l2.812,1.475l1.748,1.577l1.248,0.578l0.969-0.242l0.215-0.418l-0.025-0.578l0.07-0.61 l0.481-0.533l0.494-0.168h0.519l0.532,0.168l0.538,0.328l0.184-1.738l0.925-0.894l1.14-0.66l0.842-1.029l0.184-0.861l-0.184-0.418 l-0.329-0.353l-0.234-0.693l-0.108-0.238L176,190.7l-0.152-0.263l0.07-0.246l0.386-0.952l0.095-0.41l-0.203-0.624l-0.361-0.337 l-0.152-0.324l0.431-0.595l0.513-0.209l0.608,0.094l0.077,0.029l2.286,0.878l1.083,0.653l1.045,0.119l1.064-1.1l0.494-1.585 l-0.247-1.38l-2.825-4.677l-1.457-1.443l-0.317-0.477l-0.919-4.835l-0.31-0.622l0.741-0.235l3.059-0.095l1.013-0.214l0.26-1.429 l0.513-1.417l0.697-1.261l0.817-0.952l1.165-0.528l2.033,0.239l0.963-0.556l1.115-0.293l3.249,0.482l1.527-0.148L196.665,164.89z" style="fill: rgb(132, 132, 132); stroke: rgb(0, 0, 0); stroke-width: 1px;">
      <title>Epirus</title>
    </path>
    <path class="st2" d="M337.724,63.83l12.149,1.878l2.572-0.298l1.381-0.407l0.671-0.382l0.545-0.563l0.323-0.79l0.095-1.484 l0.209-0.622l0.887-0.849l1.368-0.871l1.432-0.614l1.089-0.076l1.134,0.799l0.576,0.938l0.64,0.614l1.298-0.156l1.096-0.597 l1.862-1.358l1.165-0.379l6.036,0.177l4.041,2.094l2.052,0.08l0.76-0.495l0.031,0.148l-0.38,1.677l0.919,3.523l5.181,2.513 l0.013,1.119l-0.646,1.001l-0.412,2.159l0.443,1.198l2.907,2.543l3.661,4.471l3.161,2.37l3.23,0.818l1.888,1.913l1.127-1.13 l1.172-0.228l1.089,0.205l1.184,0.891l1.318,2.477l2.888,2.547l1.438,0.717l-0.431,1.035l0.665,2.352l-0.209,1.073l-0.646,0.99 v1.115l-0.861,0.95l-3.458,2.685l-1.292,1.981l-3.237,2.731l-1.254,0.654l-5.251,1.196l-0.171,0.481l-0.003,0.092l-0.753-0.177 l-2.01,0.236l-3.382,1.404l-1.372,0.898l-1.287,1.148l-0.838,1.305l-0.324,2.097l0.519,1.749l1.092,1.205l1.406,0.445l0.898,0.602 l1.032,1.45l0.868,1.728l0.369,1.462l0.389,0.108l2.115,1.835l0.808,0.281l0.968,0.091l0.928-0.088l0.688-0.285l0.394,0.863 l1.202,1.138l0.04,0.745l-0.509,0.34l-4.229,0.533l-0.933,0.944l-0.244,1.545l0.469,2.116l2.544,3.838l0.599,0.59l1.945,0.956 l0.359,0.391l2.334,0.538l0.628,0.254l0.703-0.313l1.661-0.241l0.09-0.078l0.109,0.203l-0.051,2.037l0.063,1.333l-0.063,1.084 l-0.196,0.756l-0.481-0.332l-2.234-2.297l-1.277-1.007l-0.853-0.333l-2.304,0.333l-2.249-0.603l-0.908,0.055l-3.142,1.549 l-1.387,0.28l-1.786-0.782l-0.18,0.44l-0.419,0.694l-0.239-0.039l-1.047,1.515l-0.374,1.372l0.125,1.306l0.968,2.543l0.299,0.465 l0.449,0.498l2.085,1.393l0.409,1.301l0.873,1.015l0.873,0.537l0.409-0.127l4.18,1.983l0.768-0.286l1.013,0.4l1.017,0.796 l0.778,0.923l0.898,0.66l2.424,0.868l0.673,0.955l-0.075,0.695l-0.773,0.76l0.01,0.773l0.349,0.471l1.097,0.795l0.229,0.617 l-0.195,0.672l-0.434,0.117l-0.434-0.01l-0.204,0.305l0.16,0.912l0.404,0.37l0.539-0.078l0.584-0.409l-0.015,0.814l0.045,0.548 l0.135,0.419l0.294,0.399l-1.636,1.391l-0.274,0.707l0.653,0.668v0.545l-1.187,0.036l-0.578,0.496l0.18,0.496l1.127,0.061v0.596 l-3.142,0.091l-1.242-0.311l0.195-0.92v-0.544h-0.449l-0.479,0.395l-0.434-0.11l-0.185-0.538l0.299-0.836l-2.175-1.248 l-0.379-0.136l-0.284-0.872l-0.693-0.587l-0.838-0.191l-0.439,0.367l-0.06,0.37l0.219,0.671l-2.254-3.757l-0.289-0.896l0.389-1.324 l0.11-0.799l-0.274-0.357l-0.643-0.266l-0.359-0.633l-0.229-0.741l-0.259-0.585l-5.456-7.331l-2.065-1.399l-1.167-0.338 l-5.052-0.41l-3.441-1.986l-2.798-0.768l-2.464,0.117l-2.04,1.283l-1.526,2.698l-0.15,1.561l0.474,1.35l0.618,1.32l0.314,1.469 l0.185,0.494l0.474,0.244l1.242,0.107l0.554,0.166l0.359,0.406l0.569,1.017l3.277,4.715l1.815,1.976l6.364,3.493l4.14,0.989 l0.16,0.486v0.694l0.19,0.81l0.579,0.959l0.728,0.68l0.968,0.402l1.277,0.133l0.858,0.262l-0.469,0.573l-1.137,0.583l-1.137,0.262 l-5.312-0.848l-8.918-3.846l-1.496-0.249l-4.564,0.765l-0.703,0.324l0.329-0.882l0.783-1.511l0.175-0.921l-0.194-0.661 l-0.888-1.245l-0.205-0.493l-0.484-1.937l-1.077-1.386l-1.137-1.149l-0.653-1.247l0.838-2.579l0.304-3.048l-0.364-2.842 l-1.197-1.991l-2.479-1.416l-1.347-0.518l-2.274-0.534l-1.052-0.645l-0.992-0.443l-1.057,0.273l-3.187-2.374l-0.623-0.078 l-0.648-0.59l-1.436-0.339l-1.446-0.567l-1.117-2.04l-2.883-2.262l-1.167-0.548l-1.062-0.176l-2.409,0.176l0.583-1.262 l-0.494-1.308l-1.805-2.353l0.19-0.068l0.165,0.007l0.09-0.078l-0.015-0.359l-2.224-2.557l-0.569-1.313l1.342-0.565l3.915-0.229 l2.095-0.412l0.908-0.732l0.399-0.712l0.748-0.585l0.494-0.824l-0.384-1.442l-1.496-0.948l-0.389-0.15l-0.269-0.245l0.115-0.55 l0.364-0.903l-0.968-2.052l-1.426-1.1l-1.681-0.216l-1.781,0.629l0.434,1.522l-0.15,1.227l-0.494,0.955l-0.628,0.733l-0.973,0.5 l-0.574,0.412l0.05,0.186l-1.242-0.013l-0.524-0.173l-0.539-0.412l-1.212,0.827l-0.773,1.007l-0.209,1.196l0.479,1.412h-0.379 l-0.459-0.549v1.147h-0.379v-0.598h-0.449l-0.254,0.948l-0.494-0.052l-0.648-0.497l-0.698-0.399l-0.03-0.379l-0.918,0.052 l-0.968,0.817l-0.09,0.974l1.167,0.673l-0.569,0.065l-0.389,0.196l-0.224,0.425l-0.065,0.764l-0.259,0.424l-0.559-0.15 l-0.908-0.578l-1.466,0.049l-0.758,0.307l-0.698,0.741l0.878,0.803l0.633,1.139l0.304,1.27l-0.14,1.171l0.738,0.679l0.599,0.92 l0.718,0.796l1.127,0.339l0.17,0.835l-0.828,1.855l-1.656,2.835l-1.855,5.509l0.03,0.918l-2.349,5.083l-0.174,1.814l0.469,1.332 l0.638,1.332l0.319,1.818l-0.249,1.824l0.15,0.844l0.728,0.35l0.274,0.396l0.773,2.281l3.202,2.727l0.559,0.308l0.339,0.308 l1.456,0.493l0.339,0.288l0.13,0.292l0.569-0.039l0.14,0.321l-0.07,1.458l0.05,0.317l-0.63,0.152l-3.211,0.5l-0.956-0.819 l-1.077-0.181l-4.884,1.358l-2.293-0.819l-1.881-1.846l-1.349-2.408l-4.142-2.877l-1.856-2.056l-0.703-2.304l0.165-3.472 l-0.462-1.172l-2.002-1.207l-2.597,0.889l-1.045,0.92l-1.235,1.982l-1.299,1.101l-1.039-0.39l-0.462-1.169l0.222-1.277 l-0.247-1.135l0.614-0.992l0.184-1.065l-3.199-0.741l-1.229,0.675l-0.615,0.995l-0.462-1.17l-0.177-1.561l0.437-1.243l2.413-1.14 l0.836-0.961l0.19-2.381l0.975-1.813l-2.876-1.348l-0.684-1.208l-0.279-2.241l-2.052-2.308l-0.247-1.139l0.177-1.069l-0.462-1.174 l-3.433,0.545l-1.013-0.605l-0.032-1.106l-1.989-1.417l-2.274-1.024l-0.938-1.03l-1.336-2.634l-0.975-0.815l-0.038-1.108 l0.798-2.071l-1.634-2.245l-0.07-2.212l1.489-3.511l-1.343,0.006l-1.013-0.603l-1.128,0.042l-2.54-0.844l-1.121,0.042l-1.051-0.389 l1.482-3.516l-0.038-1.109l-2.109-0.774l-0.69-1.214l-0.95-3.685l-0.95-1.032l0.399-1.044l2.223,0.129l2.325-0.517l1.197-0.471 l1.058-0.938l0.177-1.078l-0.944-1.037l-2.078-0.991l-0.409-2.823l0.517-0.113l0.773-0.793l0.222-0.919l0.006-0.873l0.114-0.668 l0.608-0.76l2.306-1.613l0.006-0.008l0.006-0.008l0.83-1.509l2.185-2.108l0.836-1.247l0.114-0.615l0.01-0.266l0.053-1.341 l0.247-0.77l0.481-0.544l1.009-0.75l0.562-0.418l1.862-1.009l3.921-1.152l0.291-0.218l0.627-0.704l0.253-0.155l0.45,0.159 l0.19,0.39l0.101,0.41l0.152,0.23l2.033,1.097l0.456,0.172l1.286-0.461l2.204-2.003l1.4-0.649l1.387-0.121l0.48,0.059l0.705,0.087 l2.318,0.742l1.869,0.239l0.564,0.163l0.158,0.314l0.089,1.068l0.127,0.281l0.386,0.046l0.513-0.331l1.159-0.038l1.552-0.276 l0.766,0.054l0.557,0.272l1.298,0.846l0.697,0.264l1.818,0.08l0.982-0.109l0.855-0.222l1.178-0.356l0.975-0.008l2.002,0.301 l1.349-0.079l0.942-0.371l0.217-0.085l1.052-0.88l1.051-1.349l0.139-0.662l-0.051-0.729l0.209-0.591l0.931-0.256l0.709,0.176 l0.066,0.087l0.289,0.383l0.272,0.629l0.475,0.641l1.09,0.976l0.798,0.398l0.665-0.482l0.703-1.638l0.583-3.132l0.253-6.428 l0.07-0.28l0.57-2.29l0.674-0.593l1.144-1.008l0.971-0.174l1.79-0.321L337.724,63.83z" style="fill: rgb(132, 132, 132); stroke: rgb(0, 0, 0); stroke-width: 1px;">
      <title>Central Macedonia</title>
    </path>
    <path class="st3" d="M547.103,33.063l1.609-0.152l1.09,0.349l1.653,1.538l2.356,0.602l1.077,0.465l0.969,0.249l-0.184,1.193 l-0.538,1.03l3.477,2.622l2.781,1.443l0.608,0.633l1.166-1.751l-0.013,0.612l0.063,0.605l0.139,0.546l0.228,0.464l-0.272,0.97 l0.234,2.117l-0.38,0.809l0.652,1.172l0.298,1.412l0.304,3.032l0.995,3.973l0.26,1.641l0.013,1.72l-0.298,1.703l-0.557,1.395 l-0.792,0.786l-1.14,0.113l-1.318-0.349l-1.166-0.664l-0.64-0.815l-3.116,3.328l-0.646,0.101l-0.266,0.265l-0.152,0.361 l-0.342,0.386l-1.71,1.104l-1.615,1.453l-1.045,0.546l-3.883,0.395l-0.684,0.642l0.95,1.406l-0.646,1.778l-0.272,1.572l0.19,1.438 l0.728,1.404l-1.147,1.793v0.662l0.919,0.264l0.437,0.368l-1.045,2.102l0.165,1.172l0.855,1.824l0.526,0.857l1.628,0.795 l0.051,0.945l-0.424,0.949l-0.519,0.431l-0.918,0.109l-0.532,0.318l-0.171,0.518l0.177,0.715l0.64,0.823l0.595,0.288l0.177,0.28 l-0.614,0.819l-0.861,0.673l-1.748,0.827l-0.741,0.756l0.177,0.342l0.367,0.559l0.044,0.522l-0.817,0.234l-0.519-0.088 l-0.431-0.246l-0.317-0.367l-0.215-0.455h-0.374l-0.5,1.607l-0.361,0.734l-0.437,0.467h-0.418l-0.076-0.334l-0.304-0.768 l0.006,0.847l-0.063,0.422l-0.266,0.184l-0.551,0.15l-0.044,0.384l0.082,0.129l0.158,0.021l0.215,0.071l-0.608,0.288l-0.177,0.275 l-0.044,0.534l0.424,0.884l-3.294,2.844l-0.938,1.484l-0.519,2.15l-1.362,1.624l-1.881,0.92l-2.307-0.235l0.18-0.325l-0.668-1.23 l-0.15-1.653l-0.379-1.44l-1.317-0.63v-0.551l0.848,0.02l1.112-0.164l0.973-0.295l0.419-0.364l-0.404-0.824l-0.923-0.125 l-0.997,0.269l-0.638,0.381l-0.239-0.545l-0.15-0.611h-0.459v0.604l0.269,0.42l0.19,0.729h-0.459l-0.948-1.116l-1.915-1.182 l-2.025-0.601l-1.347,0.65l-1.027-0.276l-3.322-0.108l-0.703-0.443l-0.673-0.108l-4.354,0.384l-2.514-0.516l-2.698-0.959 l-2.613-0.496l-2.289,0.867l-0.509-0.135l-1.292-0.269l-1.282-0.7l-0.898-0.851l-0.943-0.605l-3.067-0.671l-1.047-0.079 l-2.249-1.019l-2.583-1.835l-2.524-0.819l-2.055,2.016h-0.419l-0.03-0.408l-4.788-0.868l-1.287-0.73l-0.778-0.586l-0.549-0.092 l-0.244-0.224l0.105-1.004l0.269-0.671l0.494-0.523l0.628-0.342l0.703-0.122l-1.137-0.77l-0.793-0.385l-4.973,0.049l-1.117,0.277 l0.03,1.333l-1.272,1.172l-0.753,0.434l-0.908,0.102l0.449,1.497l-0.569,0.632l-1.077,0.112l-1.122-0.033l-0.808,0.26l-2,1.134 l-0.978,0.263l-1.751,1.246l-1.81,2.461l-1.96,1.718l-2.219-0.966l-2.294,1.025l-1.202,0.079l-1.142-0.552l0.289-0.214l0.03-0.072 l0.135-0.266l-2.13-1.153l-1.312,1.222l-0.364,0.483h-0.414l-0.554-1.298l-0.648-1.117l-0.788-1.025l0.279-1.019l-0.888-0.427 l-0.658-0.615l-0.409-0.865l-0.135-1.158l-2.997-0.52l-0.773-0.28l-0.584,0.464l-0.708,0.105l-0.683,0.23l-0.539,0.855 l-1.287-0.559l-1.691,0.204L428.11,96.2l-1.197,1.805l-2.733,2.255l-0.918,0.526l0.738,0.618l0.469,0.742l-0.065,0.631 l-1.317,0.365l-0.234,0.279l-0.02,0.43l0.239,0.542l0.349,0.227l1.018-0.079l0.539,0.154l-7.935,4.686l-6.194,3.653l-2.269,0.518 l-2.639-0.154l-2.678-0.711l-6.883-3.666l-1.207-0.282l0.003-0.092l0.171-0.481l5.251-1.196l1.254-0.654l3.237-2.731l1.292-1.981 l3.458-2.685l0.861-0.95v-1.115l0.646-0.99l0.209-1.073l-0.665-2.352l0.431-1.035l-1.438-0.717l-2.888-2.547l-1.318-2.477 l-1.184-0.891l-1.089-0.205l-1.172,0.228l-1.127,1.13l-1.888-1.913l-3.23-0.818l-3.161-2.37l-3.661-4.471l-2.907-2.543 l-0.443-1.198l0.412-2.159l0.646-1.001l-0.013-1.119l-5.181-2.513l-0.919-3.523l0.38-1.677l-0.031-0.148l0.177-0.115l1.539-1.556 l1.185-0.433l2.033-0.017l2.014,0.463l0.995-0.261l1.387-2.31l0.918-0.442l1.083,0.055l1.299-0.147l1.267-0.324l0.988-0.48 l1.66-1.536l0.494,0.067l2.882,2.113l0.906-0.063l1.02-1.019l0.342-0.232l0.336-0.076l0.291-0.194l0.222-0.581l1.356,0.901 l0.729,0.143l0.684-0.337l0.374-0.615l0.032-0.69l-0.165-1.807l-0.152-2.617l1.793-0.839l2.445,0.215l1.824,0.539l0.475,0.379 l0.272,0.472l0.266,0.35l0.456,0.038l0.177-0.303l0.266-1.281l0.253-0.518l0.899-0.788l0.087-0.056l1.021-0.657l1.159-0.493 l1.071-0.135l0.988,1.117l1.197,0.767l0.057,0.712l-0.139,0.691l0.108,0.451l0.57,0.194l0.424-0.139l0.399-0.232l0.532-0.08 l1.641,0.194l0.545-0.059l2.059-0.615l0.944-0.097l1.292,0.215l0.912-0.202l1.248-1.779l1.355-0.304l1.767-0.687l1.273,1.151 l0.76,2.137l0.196,2.258l0.177,0.67l0.253,0.379l0.317,0.32l0.329,0.472l0.222,0.24l0.583,0.37l0.234,0.274l0.07,0.404 l-0.152,0.901l0.044,0.299l0.944,0.875l0.836,0.206l2.135-0.034l-0.374,0.812h1.413l1.203,0.177l1.121,0.534l1.197,1.077 l2.078,2.683l1.336,1.194l1.216,0.055l0.526-1.181l-0.165-1.417l0.19-1.085l2.382-0.168l1.28-0.454l0.608-0.126l0.823,0.101 l1.875,1.161l10.014,4.254l1.007-0.214l0.31,0.004l0.184,0.21l0.475,0.807l0.241,0.277l2.287,1.073l0.247,0.116l1.178,0.995 l2.61,3.585l1.191,0.718l1.419,0.227l1.438-0.105l10.28-3.333l1.571-0.273l0.637,0.059l0.481,0.151l0.475,0.05l0.602-0.235 l0.538-0.668l0.399-0.899l0.475-0.769l0.83-0.281l5.409,0.374l0.602,0.21l1.279,0.756l0.583,0.164l0.69-0.101l0.418-0.286 l0.437-0.437l0.754-0.554l0.69-0.24l2.128-0.16l2.287-1.546l0.627-0.244l1.368,0.521l1.799,1.995l1.184,0.491l0.874-0.181 l1.527-0.794l0.855,0.008l0.823,0.16l0.678-0.084l1.387-0.672l1.634-1.101l0.792-0.395l5.238-1.215l0.45,0.114l0.38-0.21 l0.709-1.118l0.944-2.065l0.684-2.028l0.323-0.492l0.386-0.139l0.31-0.189l0.108-0.656l-0.19-0.492l-0.849-0.804l-0.26-0.37 l-0.633-1.436l0.108-0.548l0.716-0.737l0.222-1.032l0.095-0.919l-0.082-0.931l-0.31-1.075l-0.342-0.384l-0.963-0.177l-0.342-0.282 l-0.108-0.548l0.095-1.286l-0.044-0.616l-0.564-2.084l-0.355-0.688l-0.526-0.625l-0.703-0.335l-0.861-0.169l-0.874-0.412 l-0.455-0.676l-0.273-0.406l-0.291-0.956l-0.171-1.157l0.038-1.183l0.342-1.016l0.418-0.473l0.412-0.127l0.418-0.023l0.456-0.194 l1.647-1.34l1.641-0.45l3.357-0.106L539.654,30l0.88,0.066l0.507,0.315l1.628,1.862l0.792,0.668l1.286,0.374L547.103,33.063z M507.716,135.554l0.284,1.204l-0.778,0.77l-5.731,2l-1.347-0.14l-2.12-1.214l-4.06-3.267l-0.878-1.038l-0.519-1.058l1.112,0.023 l3.596-2.097l1.611-0.611l1.791,0.049l4.943,1.49l0.943,0.696l1.027,1.003l0.544,1.123L507.716,135.554z M452.294,112.452 l-1.282,0.059l-0.379,0.882l0.449,0.957l1.212,0.295v1.602l-1.047,0.364l-0.214,1.107l0.419,2.43l0.424,0.923l0.175,0.628 l-0.14,0.641l-0.424,0.059l-1.072-0.681l-0.22,0.347l-0.469,0.576l-1.082,0.425l-2.02,0.37l-0.738,0.291l-1.491,1.413l-0.933,0.543 l-0.289-0.739l-0.424-0.582l-0.958-0.926l-0.194-0.043l-0.509,0.105l-0.17-0.062l-0.03-0.213l0.065-0.69l-0.035-0.193l-0.858-0.789 l-0.399-0.255l-1.696-0.416l-1.337-0.046l-0.858-0.658l-0.294-2.23l0.389-2.083l0.923-2.055l2.04-3.01l4.633-3.901l1.98,0.988 l2.499,0.295l1.003,0.364l0.244,0.502l0.17,0.758l0.329,0.689l0.718,0.305l0.638,0.154l0.579,0.394l0.439,0.534L452.294,112.452z" style="fill: rgb(132, 132, 132); stroke: rgb(0, 0, 0); stroke-width: 1px;">
      <title>East Macedonia</title>
    </path>
    <path class="st4" d="M404.34,140.393l0.478-0.411l-0.01-0.75l-0.369-1.024l-0.878-1.56l0.459-0.545l-0.459-0.548l1.237-0.117 l1.067,1.371l1.496,3.174l0.733,0.92l1.262,1.2l1.417,0.691l1.197-0.623l0.643,0.362l1.855,0.626l0.653,0.107l0.429,0.391 l0.683,1.799l0.364,0.544l1.805,0.039l2.015,2.228l3.332,4.886l3.84,3.903l0.643,2.129l-2.005,1.605l-2.604,0.614l-1.142-0.27 l-0.474-1.163l-0.374-1.43l-0.883-0.832l-1.092-0.585l-0.958-0.696l-1.616-2.436l-1.177-2.518l-1.456-2.106l-2.484-1.179 l-4.938-0.892l-1.756-0.746l-1.075-0.743l0.196-0.756l0.063-1.084l-0.063-1.333l0.051-2.037L404.34,140.393z" style="fill: rgb(132, 132, 132); stroke: rgb(0, 0, 0); stroke-width: 1px;">
      <title>Mount Athos</title>
    </path>
    <path class="st5" d="M325.027,176.523l0.02,0.101l0.788,2.866l0.459,0.984l0.638,0.851l2.314,1.977l1.377,0.757l0.868,0.896 l1.536,2.037l0.608,1.025l0.514,1.37l0.374,1.596l0.15,1.699l0.279,1.266l1.845,4.519l1.426,4.702l0.878,1.495l0.823,0.841 l3.187,2.107l3.127,1.278l2.364,1.832l0.18,0.184l0.269,0.348l0.753,2.404l0.708,0.994l5.227,5.932l0.788,1.639l2.913,2.813 l1.282,4.256l3.067,6.019l0.09,1.022l-0.643,0.413l-1.96,1.813l-1.197,0.41l-2.334,0.352l-1.167,0.359l-0.913,0.416l0.329,0.186 l0.254,0.186l0.259,0.15l0.414,0.061v0.493l-0.534,0.166l-0.449,0.269l-0.364,0.307l-0.284,0.326l-0.748-0.256l-1.362,0.096 l-1.406,0.381l-0.898,0.586l-0.988,0.474l-1.431-0.083L346,242.78l0.574-1.104l0.718-0.996l-0.329-1.069l0.818-0.724l2.025-0.938 l-0.01,1.009l-0.818,3.285l4.359-2.391l0.653-0.881l-0.419-0.733l0.354-0.253l0.589,0.045l0.314,0.186l0.195,0.339l0.434-0.442 l0.444-0.871l0.219-0.907l-0.299-0.855l-1.586-2.673l-0.663-0.776l0.264-1.302l-0.658-1.398l-1.087-1.287l-1.028-0.953 l-1.172-0.828l-1.062-0.376l-4.758-0.421l-0.045-0.273l0.075-0.363l-0.15-0.385l-0.299-0.466l-0.628-1.269l-0.329-0.369 l-0.449-0.077l-1.646,0.077l-1.392-0.366l-0.324,0.093l0.429,0.758v0.54l-0.618,0.642l-0.229,0.931l0.19,0.947l0.658,0.713 l-1.446,0.356l-2.414,0.244l-2.289,0.558l-1.003,1.287l-0.12,3.05l0.12,0.962l1.706,4.893h0.379l0.479-0.836l0.788-0.779 l-0.239-0.846l0.314-0.048l0.494,0.529l0.299,0.903l0.419-0.538l0.554,1.285l0.225,1.537l0.369,1.467l0.948,1.082l-0.01-0.371 l0.08-0.09l0.14,0.01l0.209-0.08l-0.254-0.535l-0.165-0.541l1.536,1.005l0.748,1.344l0.559,1.379l0.958,1.152l-0.374,0.979 l0.09,0.211l0.284,0.422l-1.935,1.148l-0.469,0.748l0.309,1.269l3.152-1.902l1.666-0.544l1.875-0.186v0.486l-0.514,0.592 l-1.99,1.071l-0.549,0.524l-0.259,0.563l-0.449,1.591l-0.279,0.556l-0.424,0.588l-0.22,0.24l-0.165-0.078l-0.399-0.187l-1.318-0.58 l-2.382,1.093l-3.534,0.251l-1.843-1.826l-1.026-0.389l-2.223,0.262l-3.313-0.996l-1.096,0.028l-3.889-2.6l-1.235-0.422 l-4.668,0.501l-2.369-0.183l-0.982-0.595l-0.45-1.153l-0.26-3.486l0.336-1.884l-4.003,0.409l-0.95-0.805l-0.469-3.526l-0.956-0.806 l-2.147-1.437l-4.314-1.577l-2.971-1.784l-5.447,6.226l-1.856,4.432l-1.279,1.085l-2.261,0.492l-1.21,0.666l-1.628,1.887 l-2.616,1.298l-2.268,0.495l-1.058-0.171l-0.247-1.113l0.393-1.013l-0.285-2.196l-0.88-1.215l-2.052-0.76l-2.122-1.63l-1.102,0.041 l-3.465,2.462l-1.166,0.461l-1.064-0.167l-0.956-0.797l-0.456-1.148l0.557-2.064l-0.462-1.149l-1.983-1.174l-0.329-3.285 l-0.462-1.148l-0.956-0.796l-5.245,1.336l-1.242,0.884l-0.386,1.018l-1.02,0.918l-1.919-1.592l-1.134,0.257l-2.223,1.594 l-2.888,2.999l-0.817-0.34l-1.577-2.394l-0.215-1.325l3.186-6.189l-0.931-2.299l-1.469-1.735l-1.134,0.257l-3.199-0.485 l-2.141-1.621l-0.874-2.724l-2.901-2.38l-0.437-1.364l0.203-1.264l-0.437-1.363l-0.899-1.216l0.165-1.057l0.811-0.959l-0.519-2.241 l0.342-2.113l-0.69-1.187l-1.032-0.372l-0.906-1.218l-0.089-2.18l-0.697-2.489l0.811-0.961l1.204-0.684l2.394,0.143l0.969,0.797 l1.108-0.051l-0.089-2.181l-1.001-4.708l0.386-1.026l0.633-1.207l1.21-0.688l0.602-0.996l1.178-0.472l1.678,0.474l0.76,0.766 l1.109-0.047l2.572-0.91l1.21-0.684l1.425-1.953l1.248-0.898l2.356-0.941l9.064,1.194l6.125,1.615l2.179,0.127l4.586-1.015 l3.218,0.515l0.792-0.742l0.177-1.062l-0.5-2.259l0.177-1.061l-0.462-1.164l-2.008-1.193l1.254-0.891l2.907-2.805l2.439-1.355 l1.26-2.197l0.576-2.091l2.952-3.021l1.843-2.982l0.576-2.094l1.412-1.74l0.462,1.17l0.615-0.995l1.229-0.675l3.199,0.741 l-0.184,1.065l-0.614,0.992l0.247,1.135l-0.222,1.277l0.462,1.169l1.039,0.39l1.299-1.101l1.235-1.982l1.045-0.92l2.597-0.889 l2.002,1.207l0.462,1.172l-0.165,3.472l0.703,2.304l1.856,2.056l4.142,2.877l1.349,2.408l1.881,1.846l2.293,0.819l4.884-1.358 l1.077,0.181l0.956,0.819l3.211-0.5L325.027,176.523z M369.551,238.97l-0.673-0.199l-0.658-0.09l-0.628,0.055l-0.554,0.234 l0.209-1.377l0.733-0.529l0.788-0.163l0.364-0.298l0.269-0.846l0.663-0.907l0.828-0.776l0.753-0.433l1.003,0.606l1.037,0.933 l0.559,1.24l-0.474,1.528l-0.988-0.759l-0.853,0.865l-0.898,2.043l-0.464-0.128l-0.509-0.676L369.551,238.97z M383.855,241.173 l-0.643-0.381l-1.925-1.912l-0.399-0.666l-0.234-1.054l-1.855-3.028l0.868-0.49l0.055,0.407l0.17,0.09l0.254-0.045l0.324,0.038 l1.441,1.577l1.691,1.41l1.905,1.128l2.075,0.724l-0.229,1.153l1.172,0.211l1.646-0.042l1.222,0.387v0.493l-1.985,2.164 l-1.167,0.816l-1.496,0.24l-0.599-0.205l-0.888-0.717l-1.626-0.301l-0.489-0.39l0.025-0.519l0.688-0.557V241.173z M400.209,233.055 l-0.913,2.43l-1.581,2.256l-1.92,1.4l-1.9-0.17l0.838-1.115l0.848-0.698l0.738-0.865l0.997-2.939l3.092-4.91l1.057-0.767 l-0.08,0.292l-0.04,0.286l-0.075,0.27l-0.224,0.279l1.347,0.26l-0.319,1.636l-1.042,1.748L400.209,233.055z M409.082,222.715 l0.569,0.263l0.254,0.276l-0.045,1.224l-0.743,1.994l-1.147,0.61l-0.579-0.648l0.06-0.549l0.289-0.177l-0.209-0.353l-0.628-0.347 l-0.259-0.568l0.21-0.867l0.359-0.829l0.479-0.732l0.524-0.138l0.12,0.764l0.045,0.604l0.254-0.257L409.082,222.715z" style="fill: rgb(132, 132, 132); stroke: rgb(0, 0, 0); stroke-width: 1px;">
      <title>Thessaly</title>
    </path>
    <path class="st3" d="M342.608,253.334l-0.274,0.296l-0.469,0.415l-0.359,0.083l-0.893-0.157l-0.474,0.073l-0.409,0.37l-0.329,0.179 l-0.509,0.038l0.279,0.814l0.14,0.303l-0.878,0.08l-1.232,0.757l-0.613,0.182l-0.738-0.163l-0.803-0.332l-0.823-0.204l-0.818,0.166 l-0.289,0.568l-0.314,1.781l-0.434,0.377l-1.526,0.051l-0.499,0.306l-0.279,0.715l-0.878-0.038l-1.416,0.354l-1.342,0.125 l-0.583-0.734l-0.299-0.632l-0.643,0.188l-1.152,0.737l-0.524-0.198l-1.032-0.711l-0.319-0.163l-0.12-0.211l-2.135-1.58 l-0.509,0.112l-1.122,0.804l-0.374,0.377l-0.494,0.345l-0.673,0.153l-0.609,0.045l-0.479,0.147l-0.419,0.326l-0.394,0.555 l-0.239-0.211l-0.604-0.373v2.141l2.933-0.485v0.485l-1.167,0.788l0.579,0.928l1.192,0.335l0.653-0.979h0.419l-0.419,1.116 l0.903-0.042l0.813-0.245l0.688-0.099l0.519,0.386l3.012-1.55l0.758-0.051l1.481,2.43l1.302,1.6l0.668,0.402l0.648,0.726 l0.539,0.242l0.494-0.054l1.192-0.43l0.619-0.105l0.818,0.249l0.997,0.631l0.878,0.86l0.449,0.936l1.247-1.258l0.653-0.325 l1.022-0.022l0.658,0.303l1.207,1.064l0.913,0.239l3.436,0.048l1.576,0.605l1.067,1.487l1.905,6.147l0.858,0.836l1.167,0.118 l0.599-0.219l0.728-0.725l0.688-0.35l0.768,0.092l0.828-0.114l0.833-0.983l-1.182-0.802l-0.529-0.22l1.142-0.515l1.112,0.258 l2.005,1.279l0.987,0.353l2.035,0.286l1.162,0.429l0.923,0.735l0.628,1.014l0.274,1.084l-0.15,0.95l-0.743,0.766l-0.898,0.435 l-0.808,0.762l-0.484,1.766l0.613-0.908l0.733-0.035l0.748,0.511l0.628,0.724l0.658,0.559l1.646,0.397l0.868,0.4v0.53l-0.539,0.203 l-1.406,0.029l-0.599,0.251l-0.509,0.584l-0.155,0.508l0.349,0.371l0.958,0.136l4.16-0.194l6.185,1.066l0.768-0.581l0.678-1.06 l1.486,0.825l2.09,2.12l-1.257,0.809l-0.449,0.209v0.58l0.763,0.178l0.628,0.342l0.239,0.479l-0.374,0.599v0.533l1.9,0.941 l2.933,4.483l2.274,1.533l0.913,0.047l2.573-0.426l-0.228,0.419l-1.685,0.776l-3.452,1.075l-2.103,1.961l-1.273,2.115l-0.538,7.354 l-1.647,1.829l-2.223,1.51l-1.045-0.188l-0.925-0.806l-2.084-0.375l-0.963-0.599l-2.375-3.406l-0.963-0.598l-1.121,0.225 l-1.045-0.187l-0.925-0.805l0.19-1.032l0.614-0.953l-0.602-1.385l-0.969-0.599l-2.28,0.659l-1.197,0.637l-0.823,0.921l-0.443,3.536 l-0.817,0.919l-2.09-0.371l-3.458-0.044l2.686,0.873l0.139,0.55l-0.274,0.083l-4.248-0.556l-0.958-0.376l1.257-1.061l-1.606-1.719 l-0.803-0.158l-1.97,1.89l-0.663,0.202l-2.11-0.215v-0.531H346l-0.808-1.207l-0.843-0.645l-0.898-0.266l-3.586-0.408l-1.112,0.25 l-0.698,1.169l0.828-0.278l0.898,0.063l0.768,0.446l0.394,0.875l-1.052-0.025l-1.826-0.338l-0.848,0.363l-0.838-3.758h-0.419 l-0.449,1.103l-0.08-0.367l-0.19-0.361l-0.11-0.376l-1.117,0.37l-2.234,0.266l-0.878,0.468l-2.504-1.635l0.514-0.8l1.107-0.946 l0.464-0.908l-1.137-0.5l-2.324-0.661l-1.406-1.029l-1.013-0.291l-0.394-0.221l-0.309-0.411l-0.988-1.665l0.559-1.362l-0.873-1.593 l-1.451-0.656l-1.207,1.435l1.107,0.149l0.08,0.608l-0.579,0.431l-0.793-0.367l-0.703-0.222l-0.698,0.637l-0.559,0.893 l-0.284,0.579v0.484l0.314,0.18l0.18,0.152l0.239,0.127l0.449,0.12v0.481l-0.449,0.316l-0.06,0.161l0.1,0.199l0.03,0.43 l-0.713,0.747l-0.748,0.221L316,305.672l-1.032-0.709l-0.025-0.228l-0.693-1.329l-0.12-0.032l-0.185-0.446l-0.169-0.228l0.13-0.171 l0.643-0.219l-0.838-1.72l-2.933-3.646l-0.544-1.204l-0.329-0.387l-0.259-0.143l-0.648-0.2l-2.858-1.788l0.075,0.809l0.279,1.398 l0.06,0.742l-1.671,1.306l-0.454,0.529l0.449,0.627l0.304,0.295l0.244-0.025l0.294-0.361l0.234,0.719l-0.145,0.589l-0.394,0.475 l-0.534,0.342l0.419,0.532l-0.344,0.649l-0.908,0.063l-1.172-0.427l-1.586-0.285l-2.304,0.288l-0.344-0.45l-0.788-0.424 l-0.848-0.19l-0.569,0.244h-0.384l-0.748-0.171l-0.953,0.554l-0.818,1.042l-0.414,1.282l-0.509-0.538l-0.344-1.039l-0.399-0.599 l-0.569-0.228l-0.539,0.092l-0.304-0.095l0.12-0.785l-0.928-0.675l-1.95-0.589l-3.167-1.416l-1.197-0.057l-1.122,0.561 l-1.446-1.445l-1.825-0.086l-1.771,0.685l-2.479,1.8l-0.569,0.139l-0.928,0.025l-0.489-0.253l-0.3-0.551l0.417-1.293l-0.177-1.52 l1.26-2.352l2.521-2.151l2.242-0.494l1.197-0.659l0.595-0.971l-0.241-2.385l1.02-2.182l-1.824-2.001l-0.032-1.073l0.811-0.936 l-0.241-2.39l0.773-2.01l-0.279-2.184l0.988-1.979l-0.013-1.11l-2.375-1.418l-0.101-0.657l-2.572,1.086l-1.02,0.906l-2.356,1.12 l-3.205-0.295l-0.386,1.009l0.076,2.148l-2.249,1.778l-1.337,0.218l0.171-1.042l-0.665-1.172l-3.338,0.539l-2.147-0.123 l-2.008-0.954l-3.313-2.229l-0.919-0.997l-0.925-2.283l-0.038-1.076l0.418-1.218l1.02-0.913l3.553-1.8l-0.038-1.075l-2.014-0.958 l-3.351-0.737l-0.956-0.792l-1.058-0.164l-0.956-0.79l-0.253-1.108l0.348-2.092l-0.431-1.355l-6.132-3.733l-0.253-1.11l1.571-2.981 l-0.038-1.08l0.38-1.014l-0.462-1.146l-1.609-2.183l-0.013-2.582l0.817,0.34l2.888-2.999l2.223-1.594l1.134-0.257l1.919,1.592 l1.02-0.918l0.386-1.018l1.242-0.884l5.245-1.336l0.956,0.796l0.462,1.148l0.329,3.285l1.983,1.174l0.462,1.149l-0.557,2.064 l0.456,1.148l0.956,0.797l1.064,0.167l1.166-0.461l3.465-2.462l1.102-0.041l2.122,1.63l2.052,0.76l0.88,1.215l0.285,2.196 l-0.393,1.013l0.247,1.113l1.058,0.171l2.268-0.495l2.616-1.298l1.628-1.887l1.21-0.666l2.261-0.492l1.279-1.085l1.856-4.432 l5.447-6.226l2.971,1.784l4.314,1.577l2.147,1.437l0.956,0.806l0.469,3.526l0.95,0.805l4.003-0.409l-0.336,1.884l0.26,3.486 l0.45,1.153l0.982,0.595l2.369,0.183l4.668-0.501l1.235,0.422l3.889,2.6l1.096-0.028l3.313,0.996l2.223-0.262l1.026,0.389 l1.843,1.826l3.534-0.251l2.382-1.093l1.318,0.58l0.399,0.187L342.608,253.334z M445.561,265.382l0.125,0.233l0.15,0.185 l0.12,0.309l0.055,0.612l-0.06,0.66l-0.18,0.076l-0.264-0.07l-0.329,0.191l-0.379,0.522l-0.404,0.456l-0.444,0.08l-0.489-0.577 h-0.419l-0.623,0.497l-0.703-0.303l-0.569-0.739l-0.229-0.793l-0.369,0.086l-0.788,0.335l-0.728,0.717l-0.205,1.223l-2.1-2.628 l2.549-1.071l-0.623-2.257l-0.419-0.558l-0.668,0.682h-0.349l-0.209-0.88l-0.529-0.262l-0.703,0.156l-0.718,0.399l0.005-0.829 l-1.386-0.606l-0.294-1.193l-0.224,0.144l-0.195,0.392l-0.464-0.715l-0.539-0.357l-0.559,0.045l-0.569,0.491l-0.085-0.794 l0.244-0.705l0.429-0.498l0.499-0.195l0.504-0.393l0.015-0.881l-0.314-1.405l0.025-1.156l0.209-1.009l0.619-0.722l1.242-0.326 l4.244,2.894l0.813,0.907l0.12,0.76l-0.209,1.915l0.09,1.024l0.284,0.775l0.339,0.364l1.017,0.517l2.564,1.773l1.267,1.18 L445.561,265.382z M440.115,316.104l-0.534,3.874l0.06,1.947l0.893,1.691l-0.509,1.091l-0.653,3.398l-0.544,1.279l-0.893,0.756 l-1.247,0.696l-1.377,0.513l-1.302,0.195l-0.683-0.189l-0.244-0.46l-0.12-0.932l-1.422-2.332l-0.249-0.076l-0.858-0.747 l-1.631,0.719l-1.023,1.191l0.963,0.665v0.58l-0.933,0.781l-0.928-0.12l-0.893-0.661l-1.137-1.26l-0.294-0.485l-0.419-0.952 l-0.399-0.612l-0.409-0.47l0.01-0.454l0.798-0.577l-0.748-1.731l-0.559-0.533l-0.823,0.145l-0.364-1.268l-1.042-0.71l-1.262-0.114 l-1.057,0.508l-0.838-0.508l-0.319,0.076l-0.529,0.432l0.01-0.353l0.04-0.151l0.12-0.041l0.249-0.035v-2.067l-0.489-0.436 l-1.028,0.208l-0.189-0.59l0.259-0.556l1.147-1.143l0.299-0.707l-0.125-0.979l-0.903-1.049l-0.534-2.007l-0.773-0.667l-0.963-0.234 l-0.883,0.202l0.379,1.068l-1.382-0.332l0.299-1.426l1.072-1.613l0.888-0.873l-0.589-1.05l-0.489,0.032l-0.469,0.547l-0.578,0.471 l-0.105,0.212l0.025,0.361l-0.085,0.338l-0.464,0.146l-0.539-0.161l-0.03-0.345l0.209-0.367l0.15-0.184v-0.582h-0.848l1.267-2.658 l-1.257-0.722l-1.327-0.516l-1.506-0.304l-1.805-0.095l1.486-0.465l0.618-0.37l0.439-0.76l-0.479-0.703l-0.12-0.694l0.06-0.513 l0.08-0.165l-0.633-1.312l-0.419-0.545l-0.205,0.475l-3.561-0.269l-4.194,0.532l-1.227-0.162l-2.1-0.732l-0.878-0.168l-1.182,0.12 l-1.87,0.437l-0.918-0.029l-4.229-1.062l-0.908,0.101l-1.95,0.545l-0.868-0.114l-0.653-0.767l-1.476-3.535l-0.209,0.308 l-0.22,0.244l-0.314,0.111l-0.509-0.082l0.613-1.167l1.152-1.279l0.793-1.257l-0.469-1.089v-0.584h0.454v-0.483l-1.312-2.292 l-0.868-1.048l-0.992-0.438l-2.678-0.413l-1.302-0.502l-0.838-0.68l-0.209-0.597l-0.06-1.373l-0.184-0.655l-1.431-1.148 l-0.239-0.258l-0.195-0.258l-0.434-0.114l-0.434-0.334l-0.195-0.891l-0.244-0.573l-0.568-0.509l-1.85-1.158l-1.526-0.719 l-1.731-1.888l-0.589-0.248l-0.374-0.344l-0.594-1.506l-0.304-0.338l-1.406-0.755l-5.99-4.522l-2.095-1.141l-1.506-0.485 l-0.788-0.067l-1.017,0.067l-1.875,0.392l-0.883-0.073l-0.813-0.616l-1.192-1.569l-0.474-0.23l-0.828-0.048l-1.003-0.22 l-0.933-0.405l-0.868-0.246l-0.798,0.287v0.584l0.863,0.026l0.823,0.325l0.494,0.692l-0.075,1.1l-0.549,0.44l-0.997,0.319 l-6.723,0.628l-1.396,0.8l-0.045-0.874l0.09-0.902l0.224-0.711l0.374-0.287l0.484-0.246l1.437-1.069l0.593-0.242l1.407-0.338 l2.778-1.513l1.845-0.475l1.766-0.939l1.466-0.533l0.224-0.233l0.269-1.073l0.135-0.297l0.708-0.243l1.257-0.045l0.539-0.3 l0.429-0.648l0.219-0.744l0.005-0.696l-0.184-0.543l0.898-0.307l1.127-1.103l0.648-0.249h3.781l1.287-0.451l3.202-1.889 l1.601-0.291l0.623,0.333l0.903,1.055l0.359,0.224l0.803,0.099l0.908,0.31l0.848,0.505l0.613,0.69l-0.444,1.495l0.628,1.176 l1.222,0.76l1.292,0.275v0.789l1.017,3.604l0.474,1.012l0.045,0.852l0.708,1.467l1.117,1.393l2.708,1.167l2.648,2.298l1.601,0.36 v0.589l-0.165,0.593l0.165,0.309l0.374-0.022l0.459-0.398l0.758,0.787l1.746,0.341l0.848,0.478l0.638-0.42l0.653,0.42l1.182-0.784 l1.227,0.245l0.968,0.981l0.389,1.427l0.539,0.939l1.232,0.863l2.409,1.133l2.733,0.872l2.963,0.245l1.327,0.305l1.237,0.474 l1.152-0.054l1.082-1.26l1.317,0.639l1.416,0.01l1.406-0.175l1.307,0.06l3.885,1.374l1.172,0.716l-0.628,0.21l-0.638,0.477 l-0.534,0.677l-0.284,0.817l-0.03,1.3l0.329,0.744l5.491,4.609l0.943,1.34l-1.526,1.212l-1.127,2.551l-0.234,2.686l1.202,1.633 v0.482l-1.157,0.38l0.189,0.685l1.387,1.648l0.13,0.925l0.015,1.226l0.105,1.061l1.436,1.808l0.13,0.769l0.304,0.411l0.299,0.228 l0.135,0.209l-0.04,1.38l0.05,0.705l0.319,0.512l-0.618,1.015l-0.16,0.37l0.449,1.024l0.788,0.907l1.651,1.252l2.13,1.106 l0.2,0.461l0.185,0.701l0.264,0.632l0.419,0.278l2.095-0.404l0.858,0.035l1.721,1.292l2.449,0.259l1.052,0.411l1.172-0.587 L440.115,316.104z" style="fill: rgb(132, 132, 132); stroke: rgb(0, 0, 0); stroke-width: 1px;">
      <title>Central Greece</title>
    </path>
    <path class="st0" d="M389.81,301.932l0.928-0.154l1.411,0.861l0.683,0.155l5.9,2.51l1.252,0.19l1.112,0.38l0.977,0.905l1.486,1.949 l2.903,2.352l0.479,0.544l0.259,0.487l1.127,0.461l0.249,0.642l-0.13,0.626l-0.18,0.585l0.09,0.572l0.678,0.584l-0.648,0.249 l-0.359,0.597l-0.19,0.846l-0.1,1.001l-0.379-1.083l-0.948,0.117l-2.988,1.639l0.06,1.591l0.913,3.322l0.259,1.448l0.578,1.078 l0.589,0.813l0.279,0.652l-0.165,0.722l-0.823,1.664l-0.299,0.781l0.01,0.661l0.16,0.762l0.085,0.853l-0.254,0.944l0.678-0.038 l0.713,0.217l0.544,0.501l0.189,0.809l-0.254,0.409l-1.87,0.692l0.439,0.51l0.549,0.375l0.678,0.189l0.878-0.016l-0.419,0.579 l0.339,0.069l0.918,0.409l-0.374,0.679l-0.09,0.547l0.15,0.465l0.314,0.418l-0.314,0.185l-0.254,0.195l-0.165,0.283l-0.105,0.44 l1.456,0.905l0.469,0.723l0.17,1.276l-0.075,1.659l-0.264,0.867l-1.377,1.47l0.838,0.48v0.574h-0.838v0.48l0.389,0.06l0.06,0.239 l-0.06,0.361l0.07,0.443l-0.075-0.201l-0.025-0.226l-0.08-0.016l-0.279,0.443l0.778,0.753l-0.514,0.853l-1.062,0.973l-0.838,1.104 l-0.698-0.483l-2.344-0.966l-0.967-0.176l-1.077-0.373l-0.409-0.963l0.02-2.878h-0.419l-0.848,0.468l-0.574-1.429l-0.663-3.257 l-0.234,0.201l-0.603,0.377l-0.444-1.288l-0.983-1.282l-1.107-0.805l-0.858,0.163l-0.269-0.264l-0.229-0.151l-0.2-0.217 l-0.18-0.424h-0.379l-0.349,1.628l-0.619,0.006l-0.648-0.283l-0.469,0.761l-0.1-0.522l-0.045-0.402l-0.185-0.201l-0.559,0.069 l0.389-0.952l-0.269-0.821l-1.327-1.443l-0.16-1.472l-2.554-3.755l-0.214-1.108l-1.032-0.491l-1.032,0.227l-1.062,0.485 l-1.097,0.309l-0.025-0.384l0.025-0.145l0.589-0.264l0.19-0.22l0.06-0.523l-0.928,0.391l-0.529-0.447l-0.469-0.687l-0.778-0.365 l-0.878-0.019l-0.753-0.123l-0.628-0.318l-0.479-0.592l2.2-2.004l0.554-1.147l-0.449-1.368l-0.569-0.58l-0.414-0.038l-0.389,0.196 l-0.514,0.132h-2.329l-0.633,0.164l-0.404,0.366l-0.309,0.366l-0.319,0.164l-1.456,0.085l-0.638,0.18l-0.643,0.312l-2.334,2.096 l-1.017,0.498l2.095,0.58l-1.257,0.476l-4.848-0.476l-6.314,0.529l-2.304,1.147l-1.826,1.414l-0.025-0.203l-0.19-0.424 l-0.842-2.232l-1.926-3.52l-2.084-2.793l-0.027-0.06l1.508-0.207l4.409-1.325l1.032-1.155l1.042-0.265l0.609-0.429l-0.389-0.934 l-0.988-0.896l-1.142-0.338l-0.015-0.388l0.015-0.673l0.778-0.085l1.377-0.35l0.778-0.095v-0.578l-0.615-0.079l0.274-0.083 l-0.139-0.55l-2.686-0.873l3.458,0.044l2.09,0.371l0.817-0.919l0.443-3.536l0.823-0.921l1.197-0.637l2.28-0.659l0.969,0.599 l0.602,1.385l-0.614,0.953l-0.19,1.032l0.925,0.805l1.045,0.187l1.121-0.225l0.963,0.598l2.375,3.406l0.963,0.599l2.084,0.375 l0.925,0.806l1.045,0.188l2.223-1.51l1.647-1.829l0.538-7.354l1.273-2.115l2.103-1.961l3.452-1.075l1.685-0.776L389.81,301.932z M354.27,358.705l0.194,0.078l2.459,1.906l0.454-0.574l2.269,2.218l0.269,0.097l0.314,0.056l0.494,0.257l1.232,1.027l0.653,0.395 l0.838,0.15l1.451-0.939l-0.075-2.049l-1.137-2.003l-1.741-0.79v-0.527l1.037-0.837l1.147-0.477l3.117-0.266l0.633,0.922 l-0.289,2.053l-0.828,2.15l-1.012,1.19l0.613,0.652l0.658,0.464l0.758,0.301l0.898,0.156v0.573l-1.187,0.423l-0.454,0.056v0.526 h0.419l0.524,0.235l1.571,0.291l1.382,0.92l1.247,0.422l2.848,2.381l-0.314,0.357l-0.1,0.156l0.11,0.166l0.304,0.372v0.526 l-1.242,0.669l-3.606,1.219l-0.29,0.016l0.019-1.27l-0.038-0.679l-0.671-0.961h-2.344l-1.184,0.63l-3.053-0.757l-1.109,0.225 l-1.799-1.792l-1.032-0.183l-1.869-1.385l-3.028-0.956l-0.88-0.996l-0.431-1.127l0.38-2.04l1.368-3.291l0.051-0.328L354.27,358.705 z M359.85,489.02l1.097,0.864l1.217,0.484l0.918,1.1l0.155,2.692h-0.419l-0.359-0.704l-1.526-1.584l-0.509-0.827l-0.394-0.898 l-0.564-1.64l0.264-0.034l0.07,0.107v0.199L359.85,489.02z M343.531,457.992l3.995,2.843l1.072,1.241l0.579,1.296l-0.369,0.32 l-0.918,0.037l-1.017,0.462l-0.479,0.751l-0.244,0.991l-0.15,4.423l-0.314,0.123l-0.898-0.095l-1.092-0.292l-0.733,0.129 l-0.718,0.726l-0.195-1.098l-0.633-0.483l-1.696-0.532l-0.07-0.231l0.07-0.326l0.03-0.295l-0.239-0.129l-0.848,0.055l-0.19-0.055 l-0.319-0.486l-0.578-1.218l-0.359-0.412l0.529-4.251l-0.07-1.737l-0.459-1.756l-0.349-0.835l-0.205-0.672l0.12-0.767l1.9-3.253 l0.733-0.617l0.723,0.45l2.444,4.492L343.531,457.992z M350.683,383.299l0.359,0.293l1.027,0.596l0.454,0.415l0.244,0.54 l0.14,0.808l-0.145,0.736l-0.633,0.324l-1.287-0.287l-0.738-0.699l-0.603-0.867l-0.903-0.811l0.429-0.477l0.499-0.337l0.549-0.187 L350.683,383.299z M378.798,376.966l-0.982,0.965l-1.436,0.653l-1.496,0.247l-1.112-0.247l0.224,1.53l-0.733,0.759l-1.272,0.253 l-1.377,0.028l-3.501,1.008l-1.362,0.041v-0.525l5.476-3.669l1.471-0.475l2.753-0.031l1.252-0.537H378.798z M372.065,362.743 l0.274-0.044l0.085,0.113v0.207l0.06,0.251l0.484,0.764l0.539,0.501l0.658,0.276l0.863,0.078v0.479l-1.182,0.689l-1.541,0.25 l-1.551-0.225l-1.202-0.714v-0.479l1.736-0.441l0.663-0.545L372.065,362.743z M376.284,345.897l1.042,0.474l-0.389,0.82 l-0.728,0.97l0.075,0.895l-0.863,0.628l-0.155,0.835l0.035,0.892l-0.274,0.81l-0.509,0.32l-1.391,0.37l-0.643,0.358l-0.464-0.471 l-0.319-0.248l-0.858-0.329v-0.527l0.713-0.443l-0.045-0.731l-0.549-0.681l-0.783-0.301l-0.743-0.49l-0.449-1.093l-0.16-1.084 l0.07-0.496L376.284,345.897z M367.84,336.301l-0.384-0.573v-0.478l0.419-0.755l0.853-0.856l1.017-0.51l1.781,0.586l0.808-0.749 l0.633-1.127l0.349-0.819l-0.743,0.047l-0.539,0.397l-0.464,0.45l-0.539,0.214L370.504,332l-1.147-0.463l-0.678,0.009l2.165-1.052 l-0.808-0.428l-0.903-0.681l0.693-0.069l0.658,0.044l0.618,0.202l0.544,0.403l0.135-0.574l0.135-0.12v-0.041l-0.269-0.321 l0.474-0.369l0.499-0.183l0.549-0.05l1.406,0.214l0.753,0.35l0.389,0.507l-0.304,0.586l0.05,0.416l0.135,0.532l0.364,0.454 l0.384,0.268l-0.095,0.101l0.035,0.391h1.676l-2.095,1.008l0.254,0.825l-1.332,1.152l-0.214,1.19h-0.384l-0.653-0.579l-0.569,0.463 l-0.648,0.802l-0.883,0.425l-0.898-0.091l-1.9-0.585L367.84,336.301z M397.008,417.318l0.194,0.378l0.095,0.329l-0.289,0.149 l-0.449-0.316l-0.015-0.549L397.008,417.318z M370.982,411.383l0.279,0.329l0.19,0.814l-0.209,0.183l-0.374-0.186l-0.174-0.522 l-0.02-0.146l-0.13-0.096l0.04-0.376l-0.209-0.593l0.389,0.103L370.982,411.383z" style="fill: rgb(132, 132, 132); stroke: rgb(0, 0, 0); stroke-width: 1px;">
      <title>Attica</title>
    </path>
    <path class="st6" d="M352.583,333.055l-1.047,0.809l-2.958,1.473L346,334.239l-0.569,0.255l-0.484-0.028l-0.534-0.142l-0.673-0.085 l-0.224,0.406l0.015,0.888l-0.09,0.894l-0.539,0.403l-0.389,0.743l0.269,1.504l0.798,1.17l1.207-0.248l1.067,0.557l1.461,0.189 l1.451-0.189l1.037-0.557l1.97,1.928l1.077,0.817l1.137,0.471l-0.269,0.761l-0.095,0.72l0.095,0.65l0.269,0.553l-0.838,0.157 l-1.122,0.694l-1.362,0.223l-0.195,0.248l-0.06,0.487l-0.19,0.776l1.526,1.165l0.828,0.389l0.992,0.075l-0.569,1.758l-0.15,1.189 l0.209,1.167l0.509,1.678h-0.838l0.165,1.668l0.249,0.683l1.123,0.449l-0.001,0.007l-0.051,0.328l-1.368,3.291l-0.38,2.04 l0.431,1.127l0.88,0.996l3.028,0.956l1.869,1.385l1.032,0.183l1.799,1.792l1.109-0.225l3.053,0.757l1.184-0.63h2.344l0.671,0.961 l0.038,0.679l-0.019,1.27l-7.266,0.359l-1.062-0.169l0.09,0.272l0.045,0.241l0.08,0.247l0.169,0.291l-2.214-0.306l-0.818,0.094 l0.105,0.784l-2.095,0.478l-0.015,0.741l0.434,0.356l0.633,0.066l0.623-0.112l-0.384,0.569v0.475l0.469,0.072l1.167,0.503 l-0.958,0.45l-1.127,0.119l-2.284-0.097l-1.267,0.234l-0.04,0.65l0.559,0.993l0.559,1.271l-1.272,0.262l-0.873-0.019l-0.758-0.278 l-0.908-0.49v-0.525h1.252v-0.521l-0.718-0.2l-0.853,0.156l-0.788-0.081l-0.569-0.874l1.257,0.525l-0.299-0.724l-0.449-0.531 l-1.337-0.893l-0.479,0.503l-0.613,0.019l-0.594-0.359v-0.162l-0.185-2.425l0.155-0.938l0.683,0.506l0.688,0.381l0.629-0.566 l0.449-1.072l0.095-1.132l1.342,0.779l0.334,0.272v-0.478l-0.299-0.704l-0.09-0.475l-0.03-0.701l-0.16-0.463l-0.399-0.191 l-0.464-0.131l-0.404-0.291l-0.868-0.432l-2.155,0.557l-0.988-0.363l0.828-0.526l-0.828-1.574l-1.526,0.901l-0.599,0.479 l-0.389,0.72l-0.858-2.772l-0.624-1.002l-1.032-1.002l-0.284-0.075l-0.713,0.113l-0.289-0.038l-0.229-0.244l-0.11-0.344 l-0.04-0.313l-0.04-0.15l-0.888-0.376l-0.534-0.113l-0.673,0.013l0.763,0.219l0.254,0.247l0.239,0.583l-1.227-0.526l-1.062,0.132 l-0.958,0.579l-0.943,0.82l-0.419-0.463l-1.706-1.115l0.135-0.282l0.284-0.764l-0.778-0.335l-0.703-0.573l-0.374-0.639l0.18-0.558 l-0.643-0.953l-0.614-0.624l-1.337,0.555l-1.107,0.677l-0.738,1.118l-0.199,1.901l0.135,0.391l0.568,0.924l0.125,0.476l-0.07,0.498 l-0.294,0.898l-0.015,0.445l0.259,0.854l0.319,0.451l0.334,0.335l0.304,0.507l0.07,0.379l-0.07,1.461l0.145,0.225l0.743,0.607 l-0.04,0.788l-0.419,1.019l0.04,0.769l3.212,3.831l0.549,0.359l-0.419,1.103h0.838v0.475h-0.419v0.521l0.643,0.618l1.466,2.641 l0.434,1.395l2.095,3.771l0.209,0.215l0.499,0.748l0.309,0.804l-0.389,0.374l-0.299,0.43l-0.195,1l-0.135,1.991l0.499,0.962 l1.157,0.252l1.267-0.162l0.838-0.296l0.04,0.355l0.11,0.215l0.145,0.193l0.165,0.283l-0.434,0.271l0.075,0.075l0.359,0.18 l-0.459,0.573l1.047,0.38l0.504,0.632l-0.155,0.373l-0.938-0.392l0.554,1.363l1.651,2.436l-0.11,0.902l0.494,1.29l0.344,1.362 l-0.319-0.034l-0.653,0.056l-0.314-0.022l0.15,0.376l0.469,0.814l0.249,0.329l0.12-0.252l0.045-0.053l0.055-0.019l0.2-0.152 l0.2,0.706l0.085,0.656l-0.065,0.625l-0.219,0.624l0.613,1.006l1.222,3.074l0.449,0.652l-0.19,0.596l0.818,1.341l1.686,1.709 l0.399,0.825l0.14,0.856l-0.229,0.664l-0.688,0.254v0.474l0.643,0.037l0.474,0.102l0.938,0.428l-0.259,0.583l-0.703,0.533 l-0.244,0.446l-0.09,0.428l0.005,0.242l0.045,0.235l0.04,0.397l-0.354,0.824l-0.783-0.071l-0.868-0.511L346,424.667l-0.524,0.846 l-0.768,0.796l-0.324,0.756l0.823,0.718l-0.13,0.254l-0.17,0.533l-0.12,0.251h1.666l-1.531,1.347l0.075,1.962l0.908,2.024 l1.207,1.936l0.638,1.345l0.259,0.238l1.217,0.519l0.693,0.538l1.142,0.522l0.259,0.368l0.15,0.374l0.249,0.278l0.594,0.065 l-0.569,0.414l-0.264,0.105v0.473l0.369,0.43l0.045,0.395l-0.264,0.371l-0.569,0.358l1.057,1.538l1.835,1.136l1.337,1.229 l-0.464,1.79l-2.095-1.037l-0.613,0.802l-0.768,0.117l-2.733-0.691l-0.554-0.79l-0.449-0.886l-0.743-0.621v-0.469l0.359-1.022 l-0.429-1.214l-0.863-1.013l-0.943-0.423l-2.633,0.584l-1.242,0.009l-0.524-0.831l-0.284-1.236l-1.377-2.943l-0.464-0.773 l-0.698-0.671l-2.643-1.927l0.873-0.91l-0.284-0.894l-2.559-2.34l-0.329-0.115l-0.244,0.579l-0.848,1.04l-0.269-0.405l-0.075-0.672 l0.344-1.78l-0.135-1.155l-0.569-1.645l-0.434-2.758l-0.853-1.345l-1.332-0.819l-1.746-0.335l-3.132-0.068l-3.86,0.459 l-2.768,1.557l0.105,3.248l-2.02,1.444l-0.778,1.081l-0.514,1.682l0.933-0.006l0.584,0.526l0.239,0.919l-0.075,1.161h-0.419 l-0.115-0.538l-0.229-0.551l-0.379-0.402l-0.539-0.068l-0.509,0.402l-0.329,0.706l-0.085,0.675l0.274,0.297l1.012,0.86 l-0.304,1.553l-0.818,0.73l-0.494-1.633l-0.898,0.551l-0.364,0.789l-0.03,4.462l0.184,1.734l0.374,1.427l1.152,3.011l-0.254,0.42 l0.254,0.664l-0.808,0.537l-0.269,0.796l0.175,0.91l0.484,0.864v0.518l-0.564-0.062l-0.15,0.216l-0.01,0.395l-0.115,0.481 l-0.688-0.842l-0.209-1.305l-0.075-1.389l-0.319-1.12l-0.893-0.75l-2.14-0.858l-0.738-1.031h-0.414l-0.629,0.655l-0.613-0.148 l-0.579-0.59l-0.484-0.667l-0.583-1.13l0.05-0.837l0.379-0.822l0.364-1.076l0.988,0.284l0.284-0.903l-0.254-1.249l-0.633-0.776 l0.304-0.371l0.569-1.135h-1.257l0.115-0.977l-0.085-1.176l0.21-0.904l1.017-0.105v-0.52l-1.197-0.421l0.135-1.3l1.062-2.483 l-1.8,0.313l-1.177-1.855l-0.958-2.392l-1.122-1.311l0.095-1.485l-0.938-1.947l-4.299-5.903l-1.307-0.677l-1.541,1.161l-1.616-1.22 l-0.663-0.761l-0.269-1.143l0.14,0.037l0.299-0.422l0.289-0.684l0.145-0.758l0.065-0.87l0.294-1.486l0.095-2.08l-0.12-0.541 l-4.14-0.933l-2.299-0.134l-1.107,0.32l-2.319,1.44l-2.304,0.647l-0.703,0.79l-0.354,1.02l-0.619,7.291l-0.309,0.928l-0.03,0.692 l0.259,0.878l0.379,0.664l0.17,0.67l-0.389,0.912l1.047,1.008l0.648,0.425l0.858,0.13v0.515l-0.823,0.065l-0.718,0.319 l-0.384,0.515l0.209,0.617l-0.389,0.691l-2.549,2.358l-0.344,0.39l-0.374,0.257l-0.524-0.012l-1.057-2.16l-0.2-0.177l-1.885-3.9 l-1.097,0.074l-0.928,0.217l-1.566,0.744l-0.728-0.763l-1.441-0.583l-0.384-0.732h-0.379l-0.549,0.323l-0.334-0.58l-0.324-0.977 l-0.499-0.847l0.239-0.723l-0.045-0.627l-0.15-0.745l-0.045-1.08l0.19-0.695l0.808-1.286l0.289-0.671l0.03-1.28l-0.449-1.112 l-0.888-0.556l-1.237,0.392l0.579-0.295l0.185-0.242l0.075-0.507l-0.549-0.037l-0.304,0.202l-0.364,0.88l-0.429-2.695l-1.566-2.003 l-1.835-1.897l-1.267-2.371l-0.549-3.02l-0.13-3.071l0.419-2.761l1.087-2.129l3.85-3.11l1.676-1.779l0.828-2.488l-0.269-3.092 l-0.579-1.715l0.959-0.451l4.104,0.861l2.204-0.49l2.027,0.534l1.172-0.651l2.173-2.797l-0.443-1.12l0.374-0.989l1.59-1.841 l1.001-0.888l1.311,1.049l1.14-0.445l0.583-0.956l-1.755-2.172l-5.625-4.471l-2.002-0.74l-1.109,0.245l-1.039-0.163l-0.076-8.423 l-1.279-3.783l0.304-3.111l3.541-5.763l2.217-0.489l0.488,2.187l2.217,0.777l1.907,1.361l4.155,1.935l1.077-0.038l1.596-1.85 l1.147-0.445l2.116,0.132l0.241,1.094l1.001,0.373l1.147-0.445l1.602-1.848l3.44-1.336l0.418-1.196l-0.443-1.13l-0.899-0.991 l0.152-2.088l0.595-0.959l0.209-1.233l-0.203-1.302l0.393-0.996l4.63-1.984l1.222-0.856l0.595-0.961l0.393-0.993l-0.032-1.063 l1.767-3.946l-1.482-2.577l0.317-2.161l0.247-0.924l0.002-0.009l0.38,0.363l1.885,0.764l0.618,0.505l0.643,0.313l0.658-0.306 l0.444-0.111l4.823,1.083l6.688,3.554l3.666,1.309l0.524,0.568l0.584,0.199l4.893,4.319l1.107,1.872l0.359,0.246l1.167,0.343 l1.905,1.679l0.908,0.617l0.948,0.151l0.953-0.17l1.481-0.51l0.469-0.019l0.509,0.05l0.489-0.022l0.409-0.246l1.237-1.874 l0.135-0.416l-0.603-0.907l-0.893-0.908l-0.703-0.413l-0.958-0.312l-1.511-1.239l-1.122-0.085l0.2-0.258l0.204-0.11l-2.05-0.113 l1.317-1.1l0.608-0.385l0.798-0.151l0.808-0.303l1.357-1.407l0.559-0.404l1.646,0.117l3.023,1.297l1.227-0.36l1.81,0.852 l0.472-0.065l0.027,0.06l2.084,2.793l1.926,3.52l0.842,2.232l0.19,0.424L352.583,333.055z M267.072,424.146l0.973,0.493 l0.095,0.846l-0.22,1.221l-0.01,1.598l-0.379-0.471l-0.219-0.192l-0.13-0.248l-0.11-0.65l-0.838,0.57l0.344-2.187l0.209-0.821 L267.072,424.146z M262.883,425.181l0.07-2.699l0.239-1.163l0.529-0.812l0.309,0.18l0.239,0.214l0.269,0.149l0.399-0.028v0.474 l-0.269,0.152l-0.279,0.248l-0.249,0.167l0.015,0.79l-0.374,0.707l-0.499,0.741L262.883,425.181z" style="fill: rgb(132, 132, 132); stroke: rgb(0, 0, 0); stroke-width: 1px;">
      <title>Peloponnese</title>
    </path>
    <path class="st7" d="M262.035,376.347l-0.439-1.306l-4.15-7.957l-2.334-3.529l-1.167-1.24l-5.292-3.757l-1.262-0.643l-0.688-0.696 l-1.192-1.571l-0.623-0.571l-3.611-1.073l-1.197,0.339l-0.319,2.086h-0.384l-0.125-0.734l0.01-0.772l-0.13-0.681l-0.589-0.489 l0.758-1.581l0.224-1.268l-0.175-1.293l-1.017-3.502l-0.633-1.037l-0.853-0.641L234.17,343l-6.449-1.968l-0.554-0.459l-0.334-0.937 l0.244-1.158l-0.329-0.591l1.676-5.282h0.419l1.471,1.294l2.658-1.269l2.688-2.337l1.586-1.916l0.858,0.29l0.733-0.473l0.683-0.779 l0.693-0.624v-0.577l-0.224-0.158l-0.07-0.06l-0.03-0.076l-0.13-0.189l-0.594,0.262l-0.598,0.404l-0.524,0.454l-0.379,0.416 l2.758-4.232l0.12-0.505l2.189-3.465l0.269-0.808l0.14-1.007l0.125-4.644l-0.09-1.271l0.653,0.74l0.818,1.413l0.628,0.544 l-0.05-0.932l-0.15-0.74l-0.269-0.569l0.319,0.496l0.893,0.471l1.077,0.152l1.317,0.016l0.873,0.322l3.062,2.332l4.848,1.102 l1.182-0.23l1.227-0.569l1.99-1.365l1.626-1.987l2.464-5.008l1.386-2.028l4.678-2.944l0.549-0.595l4.05,0.839l1.317-0.01 l0.584-0.133l0.574-0.342l0.589,0.532l0.768,0.494l0.888,0.374l0.938,0.146l0.768,0.285l0.384,0.69l0.254,0.886l0.434,0.842 l0.673,0.569l1.826,0.886l0.658,0.136l0.489-0.085l0.693-0.361l0.304-0.032l0.519,0.544l0.419,0.351l0.509,0.161l0.374,0.398 l0.658,1.992l0.449,0.797l0.509,0.272l2.229,0.74l0.19,0.174l0.229,0.379l0.344,0.379l0.494,0.174h1.9l2.648,0.657l0.738,0.404 l1.127-0.515l0.958,0.629l0.638,0.61l-0.002,0.009l-0.247,0.924l-0.317,2.161l1.482,2.577l-1.767,3.946l0.032,1.063l-0.393,0.993 l-0.595,0.961l-1.222,0.856l-4.63,1.984l-0.393,0.996l0.203,1.302l-0.209,1.233l-0.595,0.959l-0.152,2.088l0.899,0.991l0.443,1.13 l-0.418,1.196l-3.44,1.336l-1.602,1.848l-1.147,0.445l-1.001-0.373l-0.241-1.094l-2.116-0.132l-1.147,0.445l-1.596,1.85 l-1.077,0.038l-4.155-1.935l-1.907-1.361l-2.217-0.777l-0.488-2.187l-2.217,0.489l-3.541,5.763l-0.304,3.111l1.279,3.783 l0.076,8.423l1.039,0.163l1.109-0.245l2.002,0.74l5.625,4.471l1.755,2.172l-0.583,0.956l-1.14,0.445l-1.311-1.049l-1.001,0.888 l-1.59,1.841l-0.374,0.989l0.443,1.12l-2.173,2.797l-1.172,0.651l-2.027-0.534l-2.204,0.49l-4.104-0.861L262.035,376.347z M272.408,298.32l-0.308-0.57l-0.349-0.276l-0.569,0.171l-3.003,2.569l-0.469,0.862l-0.18,1.475l-0.559,0.412l-1.197-0.738 l-1.636-1.558h-3.576l-1.003,0.266l-0.888,0.491l-0.833,0.247l-0.853-0.472l-3.935,2.884l-0.703,1.411h-0.379l-0.569-0.5 l-0.863-0.187l-0.783-0.038l-0.339-0.073l-0.419-0.535l-2.504-1.367l1.037-0.275l0.973,0.551l0.913,0.826l0.838,0.535v-0.576 l-0.284-0.339l-0.15-0.263l0.065-0.345l0.369-0.598l-0.584-0.427l-0.254-0.105v-0.579l0.239-0.114l0.598-0.418h-1.212l0.374-1.064 l-0.559,0.285l-0.519,0.117l-0.494-0.082l-0.479-0.32l-0.354,0.301l-0.259,0.114l-0.643,0.165l0.389-1.53l-0.748-0.808 l-1.252-0.314l-1.127-0.057l-0.464-0.726l-0.598-4.639l-1.292-1.545l-0.708-0.549l-0.304-0.133l-0.264,0.076l-0.589,0.073 l0.21,0.609l2.529,4.18h-0.873l0.13,0.285l0.06,0.057l0.08,0.013l0.184,0.177l-0.224,0.805l-0.15,0.868l-0.23,0.694l-0.444,0.285 l-0.628,0.143l-1.302,0.684l-0.409,0.291l0.15,0.31l0.065,0.019l0.244,0.149l-0.459,0.58l-0.828-0.532l-0.499,0.238l-0.195,0.504 l0.075,0.276l0.284,0.266l-0.449,0.586l-0.898,0.792l-0.673,0.437l-0.419,0.133l-1.212-0.085l-0.494-0.285l-0.459-0.466 l-0.459-0.095l-0.509,0.845l0.309,0.304l0.379,0.193l0.454,0.082l-0.299,0.086l-0.748,0.218l-0.479,0.456l-0.035,0.829 l-1.157-0.098l-0.429-0.788l-0.17-1.013l-0.334-0.753l-0.733-0.266l-1.87-0.044l-0.778-0.222l0.718-0.336l0.539-0.396l0.225-0.58 l-0.195-0.865l-0.598,0.358l-0.239,0.222l0.539-1.216l0.299-0.424l-0.179,0.545l0.628,0.329l0.703-0.469l0.529-0.678l0.414-0.795 l-1.102-0.894l-0.469,0.057l-0.524,0.837l-0.703-0.32l-0.489-0.583l-0.304-0.799l-0.175-0.951l0.19-0.159l0.06-0.006l0.04-0.073 l0.095-0.342l0.613,0.789l0.708,0.374l0.579-0.203l0.225-0.961l-0.838,0.58l0.284-1.027l-0.578-1.452l0.294-0.717v-0.581 l-0.583-0.003l-0.399-0.133l-0.688-0.343l0.564-0.349l0.274-0.124l0.414-0.06l-0.244-0.165l-0.349-0.308l-0.274-0.111l0.584-1.251 l0.165-0.628l-0.09-0.467l-0.569-0.352l-0.479,0.314l-0.479,0.514l-0.569,0.27l-0.224,0.302l-0.668,0.555l-0.698,0.349 l-0.324-0.352l-0.135-0.714l-0.569-1.124l-0.135-0.851l0.474-3.189l0.005-1.697l-1.287-1.405l-0.953-2.935l-0.559-0.668 l-2.384-0.029l-0.828-0.299l-0.748-0.741l-0.429-0.964l-1.486-6.323l-0.598-1.249l-0.828-0.644l-0.898,0.306l-0.898,0.927 l-0.738,1.118l-0.439,0.86l-0.449-0.85l-0.364,0.143l-0.384,0.392l-0.479-0.124l-0.658,0.564l-0.244-0.322l-0.115-0.71l-0.23-0.596 l-2.105-1.708v-0.488l0.469-1.004l0.274-1.435l0.484-1.282l1.102-0.555l1.317,0.048l0.703-0.067l0.299-0.249l-0.2-0.498 l-0.474-0.447l-0.504-0.319l-1.317-0.622l-0.519-1.184l-0.12-1.417l0.21-1.188l0.753-1.482l0.329,0.578l0.394,1.303l0.987,0.674 l1.187,0.396l1.157-0.591l0.848-1.159l0.618-1.322h0.419l0.2,0.623l0.07,0.418l-0.06,0.3l-0.21,0.262l0.11,0.134l0.189,0.16 l0.04,0.278l-0.339,0.501l1.242,0.019l1.032-0.147l0.733-0.632l0.299-1.431h0.419l0.594,0.808l0.618,0.035l0.748-0.246l0.973-0.01 l0.823,0.316l0.584,0.374l0.683,0.3l1.097,0.128l0.16,0.501l-0.199,1.101l-0.07,1.111l0.514,0.498l0.833,0.211l0.813,0.53 l1.496,1.404l0.075-0.708l0.15-0.402l0.259-0.255l0.384-0.29v-0.488l-0.474-1.009l0.653-0.495l1.137,0.048l0.988,0.603l1.436,1.714 l0.025,0.211l0.379,0.22l0.344,0.131l0.294-0.198l0.239-0.737l-0.504-0.45l-0.21-0.364l-0.174-1.181l-0.214-0.073l-0.274,0.077 l-0.264-0.201l-0.778-1.366l-0.105-0.824l0.434-1.022l-0.324-0.632l0.189-0.706l0.464-0.419l0.504,0.198l-0.055-1.85l-1.491-2.014 l-3.087-3.108l-0.434,0.502l-0.229,0.512l0.005,0.525l0.274,0.556l-0.838-0.333l-0.304,0.115l-0.099-0.889l0.646-2.06l1.014-0.92 l1.165-0.469l7.639-0.136l1.128-0.258l2.369-1.144l3.268-2.727l1.381-0.433l0.013,2.582l1.609,2.183l0.462,1.146l-0.38,1.014 l0.038,1.08l-1.571,2.981l0.253,1.11l6.132,3.733l0.431,1.355l-0.348,2.092l0.253,1.108l0.956,0.79l1.058,0.164l0.956,0.792 l3.351,0.737l2.014,0.958l0.038,1.075l-3.553,1.8l-1.02,0.913l-0.418,1.218l0.038,1.076l0.925,2.283l0.919,0.997l3.313,2.229 l2.008,0.954l2.147,0.123l3.338-0.539l0.665,1.172l-0.171,1.042l1.337-0.218l2.249-1.778l-0.076-2.148l0.386-1.009l3.205,0.295 l2.356-1.12l1.02-0.906l2.572-1.086l0.101,0.657l2.375,1.418l0.013,1.11l-0.988,1.979l0.279,2.184l-0.773,2.01l0.241,2.39 l-0.811,0.936l0.032,1.073l1.824,2.001l-1.02,2.182l0.241,2.385l-0.595,0.971l-1.197,0.659l-2.242,0.494l-2.521,2.151l-1.26,2.352 l0.177,1.52L272.408,298.32z" style="fill: rgb(132, 132, 132); stroke: rgb(0, 0, 0); stroke-width: 1px;">
      <title>West Greece</title>
    </path>
    <path class="st7" d="M411.97,567.006l-0.374,0.653l-0.055,0.771l0.264,0.687l0.583,0.381V570l-1.636-0.115l-1.377-0.726 l-2.434-1.691v-0.463l0.703-0.009l0.554-0.227l0.459-0.369l0.379-0.411l0.768-0.042l0.738,0.109l1.427,0.396V567.006z M546.354,532.711l-0.539,1.369l-0.888,0.9l-1.032,0.791l-0.923,1.07l1.097,3.866l0.958,1.695l1.327-0.927l-0.574,1.163 l-1.003,1.197l-0.638,1.166l0.549,1.063l-0.434,1.36l-0.573,1.357l-0.653,1.204l-0.658,0.916l-0.314,0.637l-0.613,1.789 l-0.344,0.37l-0.708,0.127l-0.608,0.309l-0.539,0.352l-3.546,1.582l-0.873,0.218h-1.701l-0.095-0.209l-0.893-0.997l-0.454-0.315 l-1.456-0.233l-1.217,0.155l-1.092-0.009l-1.107-0.725l-0.554-0.476l-0.509-0.155l-0.499,0.164l-0.534,0.467l-0.474,0.127 l-2.219-0.382l-2.608,0.521l-4.499,1.588l-12.678-0.582l-3.87,1.234l-0.943,0.567l-1.012,0.361l-5.576-0.682l-4.14,0.164 l-1.177,0.318l-1.501,0.185l-0.564,0.285l-0.918,0.621l-3.471,1.372l-0.948,0.2l-3.481-0.315l-1.347,0.315l-0.379,0.245 l-0.504,0.597l-0.414,0.17h-0.633l-0.394-0.185l-0.349-0.218l-0.484-0.106l-1.082,0.085l-0.908,0.212l-1.586,0.678l-0.973-0.397 l-1.192-0.13l-15.027,0.527v-0.466l0.808-0.639l0.214-0.851l-0.19-2.83l0.11-0.903l0.369-1.437l-0.06-1.055l-0.19-0.743 l-0.349-1.019l-0.449-0.901l-0.474-0.391l-0.329-0.164l-0.304-0.346l-0.409-0.349l-0.648-0.161l-5.426-0.094l-1.486-0.307 l-0.888-0.573h-0.384l-0.574,0.228l-0.688-0.628l-1.287-1.633l-0.818-0.595l-1.122-0.595l-1.197-0.261l-1.047,0.431l-3.696-1.859 l-0.105-0.735v-0.465l-6.673,0.659l-4.623-0.659l-0.269-0.203l-0.299-0.371l-0.219-0.346l-0.06-0.146l-0.409,0.018l-0.329,0.201 l-0.269,0.228l-0.279,0.109h-4.389l-1.062-0.501l-0.573,0.009l-0.249,0.747l-0.254-0.07l-1.631,0.325l-1.127-0.492l-1.726-2.167 l-0.958-0.492l-5.257,0.158l-2.554-0.383l-2.055-1.216l-0.509,0.395l-0.374,0.188l-0.354,0.015l-0.429-0.131l-1.067,0.869 l-4.314-0.152l-1.736,0.815l-0.873-0.857l-3.591,0.176l-1.431-0.34l-0.299-0.426l0.135-0.681l-0.254-0.426l-0.449-0.255 l-0.833-0.088l-0.394-0.167l-0.494-0.523l-0.389-0.569l-0.464-0.526l-0.783-0.423l0.454-0.511l-0.244-0.055l-0.145-0.003 l-0.06-0.106l-0.005-0.344l0.898-0.469l0.369-0.085l0.444-0.006l0.075-0.219l-0.01-0.155l0.06-0.091h0.294l-0.384-0.545 l-0.299-0.569l-0.065-0.657l0.329-0.825l-0.464-1.339l0.658-1.708l0.973-1.66l0.509-1.173l-0.125-0.475l-0.294-0.475l-0.284-0.32 l-0.135-0.006l0.065-0.494l0.618-1.896l0.409-0.689l0.05-0.573l-0.758-0.485v-0.467l0.304-0.366l0.095-0.174l-0.095-0.168 l-0.304-0.36l0.928-1.889l0.199-0.888l-0.254-0.855l1.232-2.039l0.264-0.715l0.18,1.511l0.03,3.058l0.384,1.3l0.334,0.772 l0.234,0.195l0.489,0.058l0.479,0.128l0.055,0.293l-0.055,0.339l0.14,0.265l0.529,0.259l0.554,0.177l1.466,0.122l1.202-0.247 l0.948-0.747l0.578-1.275l0.16-1.825l-0.344-1.459l-0.539-1.374l-0.205-1.13l0.668-0.742l-0.599-1.347l-0.165-1.054l0.284-0.95 l0.688-1.008l0.888-0.902l0.519,0.028l0.599,0.538l1.177,0.593v0.562l-0.683,0.764l0.015,0.962l0.668,2.373l-0.08,1.93l0.08,0.586 l1.257,2.347l1.082,0.735l5.162,0.573l1.696,0.485l0.928-0.32l3.451,0.378l1.526-0.058l0.638-0.204l0.544-0.317l0.384-0.503 l0.14-0.769l0.269-0.622l0.658-0.192l1.576,0.098l-0.753-2.68l2.05-0.855l2.768,0.318l1.382,0.861l1.247,3.284l-0.17,0.558 l-0.289,0.211l-0.494,1.013l-0.294,0.36l-0.574,0.275l-0.603,0.137l-1.297,0.055l-2.394-0.522l-1.367-0.073l-0.878,0.595 l0.309,0.649l1.047,0.686l1.147,0.54l1.805,0.537l2.02,1.408l1.012,0.317l1.082-0.195l1.112-0.506l1.017-0.664l0.818-0.677 l0.708,3.438l0.09,1.417l-0.125,2.677l0.125,0.646l0.469,0.372l1.247,0.085l0.583,0.332l2.274,0.822l5.392-1.598l2.209,0.542 l1.302-0.725l4.982-0.901l1.651-0.524l3.82-1.983l1.287-0.436l1.322-0.25l1.377-0.03l6.08,1.063l1.267,0.676l0.584-0.43 l1.032-0.506l1.736-0.6l3.8,1.535l0.359-0.466l0.229-0.174l0.15-0.241l0.1-0.655l2.913,0.71l0.668,0.88l1.087-0.167l0.359,0.113 l0.08,0.493l-0.14,0.405l-0.219,0.399l-0.1,0.466l0.509,1.888l1.327,0.804l1.826,0.149l2.843-0.167l1.746-0.402l0.948,0.055 l0.209,0.183l0.294,0.347l0.414,0.335l0.569,0.158h1.865l3.382-0.56l1.516,0.472l0.898,0.058l0.938-0.53l0.419,0.56l0.459-0.56 l1.117,1.074l0.848,1.205l1.057,0.983l1.736,0.405l1.736-0.246l9.616-3.624l1.292-0.259l0.703,0.158l1.297,0.703l0.933,0.161h3.591 l-0.444,1.016l-0.698,0.858l-1.406,1.232l0.454,0.465l-0.374,0.684l-0.06,0.593l0.254,0.468l0.599,0.341l-0.075-1.301l0.309-0.593 l0.499,0.091l0.489,0.733l-0.324,0.511v0.252l0.324,0.307l-0.349,0.553l-0.309-0.262l-0.219-0.079l-0.284,0.207l-0.479,0.602 l0.18,0.66l-0.509,0.839l-0.449,1.112l0.324,1.513l-0.738,0.617l0.085,0.662l0.404,0.723l0.249,0.802l0.229,1.506l0.628,0.176 l0.883-0.158l1.018,0.492l0.803,0.637l0.758,0.212l1.372-0.061l0.778-0.479l1.062-2.104l0.703-0.477l0.514-0.033l0.354-0.094 l0.599-0.431l0.763-1.318l0.07-0.206l0.728-0.188l2-0.131l2.289-0.471l0.419-0.185l1.915-1.24l0.568-0.55l0.449-0.292l0.584-0.146 l0.414,0.076l0.339-0.027l0.339-0.462h0.419l0.858,0.726l2.344,0.617l-0.698,0.741l1.317,0.711l1.556-0.155l1.491-0.69l1.122-0.887 l-0.314-0.14v-0.085l-0.105-0.28l1.686-1.593l1.187-1.617l1.332-1.174l2.11-0.255l-0.459-0.976l0.658,0.027l0.219-0.027 l-0.135-0.256l-0.155-0.548l-0.13-0.265H546.354z" style="fill: rgb(132, 132, 132); stroke: rgb(0, 0, 0); stroke-width: 1px;">
      <title>Crete</title>
    </path>
    <path class="st4" d="M586.494,524.025l1.616-0.42l0.583-0.055l0.085,0.475l-0.384,0.293l-0.454,0.219l0.454,1.535v0.466 l-0.903,0.043l-1.496,0.286l-0.564,0.228l-0.778,0.509l-0.554,0.493l-0.568,0.377l-0.798,0.152l-0.549,0.24l-1.067,1.044 l-0.713,0.25l-0.763-0.317l-0.643-0.703l-0.329-0.703l0.215-0.323l0.599-0.317l1.087-1.407l0.439-0.32l0.219-0.238l0.404-1.06 l0.214-0.238l0.509,0.094l0.688,0.372l0.294,0.046l2.214-0.893L586.494,524.025z M600.948,517.33l1.302,1.245l0.254,0.802 l-0.299,1.585l-1.571-0.396l-1.586,0.643l-1.182,1.411l-0.299,1.917l0.135-0.219l0.115-0.219l0.209-0.128l0.419,0.055l-0.319,0.6 l-0.479,0.579l-0.608,0.503l-0.728,0.366l0.419-1.228l-0.479-0.436l-0.868-0.11l-0.748-0.274l-0.559-0.686l-0.414-0.85l0.075-0.729 l0.898-0.335v-0.463h-0.419v-0.512l1.027-0.268l0.06-0.784l-0.668-2.068l0.045-1.065l0.185-0.653l0.07-0.552l-0.299-0.803 l-0.494-0.406l-1.591-0.986l-0.429-0.653l0.09-0.998l0.449-1.017l0.554-0.788l0.374-0.321l1.446-0.877l0.509-1.919l0.259-1.919 l1.606-1.85l0.469-2.175l0.04-2.286l-0.349-1.285v-0.514l0.878-0.56h0.409v0.56h0.419l0.339-0.441l0.918-1.148l0.529-0.429 l0.444-0.092l0.364,0.162l0.339,0.358l-0.22,1.004l-0.848,1.426l-0.19,0.955v1.799l0.08,0.648l0.324,0.759l0.015,0.642 l-0.359,0.557l-0.708,0.7l-0.708,0.902l-0.319,1.174l-0.259,0.666l-0.594,0.703l-0.594,0.92l-0.259,1.302l-0.015,1.139l0.125,0.507 l1.596,1.221l1.481,2.68l0.404,0.44l0.339,0.238l-0.269,0.525l-0.459,0.519l-0.239,0.204l-0.045,0.503l-0.035,0.037l0.1,0.024 L600.948,517.33z M510.469,452.298l0.853-0.321l0.579-0.629l0.544-0.426l2.155,0.91l1.99,1.776l1.207,0.194l-0.509,1.008 l-0.539-0.114l-0.589-0.561l-0.663-0.333l-0.973,0.179l-0.733,0.351l-0.793,0.21l-1.586-0.333l-0.279,0.018l-0.19-0.065 l-0.399-0.555l-0.269-0.521l-0.135-0.537L510.469,452.298z M663.94,448.578l-0.853,1.105l0.643,3.405l-1.257,0.715l-0.284,0.45 l-0.374,2.651l-0.469,0.811l-1.347,1.63l-0.279,0.943l-0.15,2.131l-0.309,0.917l-0.544,0.385l-0.374,0.495l-0.768,2.333 l-0.329,0.738l-0.175-0.077l-1.082-0.009l-0.414,0.086l-0.145,0.308l-0.11,0.523l-0.239,0.498l-0.579,0.218l-1.476,3.662 l0.559,0.415l0.489,0.273l0.484,0.172l0.599,0.123l-0.165,0.621l-0.239,0.529l-0.374,0.479l-0.479,0.479l0.254,0.319l0.583,1.225 l-3.187-1.004l-1.267-0.043l-1.441,0.531l-2.758,1.732l-0.988,1.032l-2.449,4.029l-1.766,2.331l-2.215,2.051l-2.878,1.787 l-2.524-1.741l-0.404-0.147l-0.145-0.503l-1.107-2.331l0.803-1.092l1.761-5.279l0.364-1.87l-0.18-1.693l-0.628-0.891l-0.838-0.639 l-1.491-1.697l-0.095-0.372l0.384-0.587l-0.08-0.353l-0.573-0.452l-0.389,0.068l-0.344,0.006l-0.409-0.655l1.008-0.397l2.379-1.667 l1.461-0.511l0.529-0.424l-0.279-0.615l0.529-0.428l0.125-0.416l0.005-0.499l0.14-0.674l0.409-0.951l0.429-0.693l0.559-1.201 l0.284-0.305l1.81-0.511l0.279-0.283l0.459-0.665l2.045-2.117l0.459-0.841l0.574-0.573l3.651-1.258l6.838-3.682l0.918-0.716 l2-0.978l4.015,0.244l1.835-2.352l0.524-0.04l0.534,0.472l0.529,0.843V448.578z M488.803,445.003l2.2,0.701l2.11,1.528l1.641,1.963 l0.748,2.024l-0.13,1.505l-0.569,1.514l-0.913,1.168l-1.132,0.462l-1.237-0.123l-2.853-0.832l-1.117-0.592l0.718-0.37l1.446,0.025 l0.763-0.173l0.599-0.49l0.583-1.166l0.494-0.416l-0.414-1.987l-0.289-0.759l-0.554-0.407v-0.466l0.344-0.945l-0.908-0.522 l-2.364-0.654v-0.519l0.279-0.139l0.289-0.207L488.803,445.003z M612.279,448.112l-0.574,1.352l0.743,0.811l1.292,0.114 l1.092-0.722l0.21,0.231l0.09,0.231l0.08,0.571l-0.364,0.762l-0.643,0.703l-0.758,0.37l-0.708-0.238l-0.309,0.358l-0.559-0.358 l-0.748,0.108l-0.808-0.861l-0.449-1.277l0.329-1.12l-0.808-0.472l-0.703,0.213l-0.569,0.596l-0.434,0.697h-0.419l-0.344-0.667 l-0.763-0.562l-0.15-0.605l0.045-1.525l0.115-0.722l0.219-0.63l0.589,1.195l0.908-0.318l1.012-0.877l0.873-0.469l0.778,0.55 l0.808,2.142L612.279,448.112z M548.868,432.981l1.91,0.102l2.279,1.355l1.776,1.676l0.399,1.061l-0.369,0.38l-0.309,0.065 l-0.299-0.281l-0.329-0.68l-0.918,0.829l-0.848,0.281l-1.786-0.074l-0.823,0.263l-0.628,0.665l-0.883,1.715l-0.06,0.992l0.11,0.942 l-0.479,0.476l-1.466,0.136l-1.027-0.432l-1.147-2.021l-0.997-0.612l0.145-0.538l0.09-0.21l0.224-0.291l-0.559-0.89l-0.175-1.088 l0.304-0.631l0.848,0.489l0.888-0.538l1.042,0.646l1.022,0.974l0.808,0.473l0.563-0.281l0.599-1.045l0.329-0.229l0.693,0.099 l0.529,0.161l0.489,0.031l0.608-0.291l-0.828-0.452l-0.329-0.711l0.244-0.65l0.03-0.216l-0.658-0.229l-0.534-0.396l-0.479-0.464 V432.981z M641.272,436.659l0.045,0.891l0.12,0.649l0.254,0.581l-0.563,0.362l-0.274,0.111l0.304,0.164l0.249,0.216l0.169,0.297 l0.115,0.408l-1.361,0.803l-0.703,0.198l-0.903-0.009v-0.473l0.359-0.173l0.519-0.538l0.414-0.328l-2.663-0.927l-0.823-0.519 l0.943-0.677h-2.933l0.419-0.708l0.673-0.792l0.559-0.81l0.055-0.804l0.284-0.025l0.169-0.117l0.384-0.421v0.563l1.017-1.306 l1.461-0.814l1.167-0.152l0.125,0.672l-1.706,0.517l-0.793,0.557l-0.429,1.046l0.564-0.223l0.254-0.003l0.434,0.795l2.095-1.652 l0.135,0.282l0.045,0.071l0.06,0.04l0.179,0.17l-0.329,0.266l-0.209,0.297l-0.15,0.297l-0.15,0.229l0.419-0.315l0.205,0.093 l-0.02,0.445L641.272,436.659z M457.307,430.901l4.888,3.11l0.968,1.658v0.47l-1.576-0.105l-0.928-0.346l-1.676-1.67l-0.987-0.65 l-0.978-0.409l-0.838-0.665l-0.549-1.393l1.277-0.056L457.307,430.901z M474.349,426.743l2.424,0.056l-0.165,0.211l-0.04,0.341 l0.06,0.434l-3.302,3.49l-2.234,1.804l-1.576-0.096l2.284-4.677l0.723-0.245l1.222-1.075L474.349,426.743z M433.172,424.667 l2.349-1.283l1.267-0.307l0.778,1.069l-0.175,0.827l0.175,4.135l-0.519,0.564l-1.177,0.588l-2.07,0.641l-7.357,0.167l-2.304,0.919 l-0.249-1.096l0.514-1.659l-0.264-0.929l0.264-0.211l0.274-0.452l0.299-0.328l-0.569-0.44l-0.269-0.13l0.594-0.601l0.494-1.363 l0.584-0.632l0.294,0.418l0.394,0.418l0.464,0.384l0.524,0.335l0.843-0.18l0.728,2.181l1.182,0.601h2.095l0.658-0.372l-0.18-0.83 l-0.574-0.88l-0.529-0.52l-0.838,0.462l-0.599-0.483l-0.514-0.858l-0.603-0.676v-0.521l0.698-0.781l0.798,0.459l1.052,0.886 L433.172,424.667z M443.461,421.496l0.858,0.447l0.583,0.629l0.12,0.812l-0.514,1.023l-0.893,0.251l-0.923-0.784l-1.322-1.81 l0.838-1.042l1.032,0.028l0.314,0.127L443.461,421.496z M482.115,426.743l0.14-0.155l0.07-0.049l0.075-0.074l0.135-0.242 l-0.529,0.068l-1.187-0.068l0.324-0.7l0.324-1.05l0.16-0.948l-0.14-0.418l2.713-2.083l0.768,0.995l1.022,1.844l0.723,0.806 l1.097,0.576l1.097,0.341l0.958,0.542l0.613,1.187l-0.763,0.142l-0.419,0.52l-0.04,0.718l0.349,0.694v0.474l-1.347,1.916 l-2.164-1.108L482.115,426.743z M441.372,417.901v0.521l-0.474,0.534l-1.696,3.061l-1.003,0.121l-1.017-0.316l-0.454-0.564 l-0.175-0.896l-0.334-0.521l-0.18-0.524l0.304-0.893l0.494-0.537l0.798-0.484l0.893-0.242l0.748,0.22l0.374,0.316l0.359,0.161 l0.399-0.075l0.509-0.403l0.11,0.223l-0.015,0.133l0.045,0.09L441.372,417.901z M491.317,418.162l0.444-0.881l1.017-1.018 l1.471-1.012h0.454l-0.454,0.568l0.334,0.04l0.13,0.205l-0.045,1.896l-1.222,0.785l-1.436,0.168L491.317,418.162z M605.177,412.41 l0.648,1.227l3.032,0.758l0.908,1.425l-1.985,1.108l-6.693,1.893l-1.436,0.881l-3.731,3.925l-1.277,0.192l-1.586-0.223 l-1.416-0.471l-0.768-0.586l-3.401,1.637l-0.997,0.976l0.628,1.592l-0.878,0.276l-0.369,0.815l0.055,1.053l0.389,0.975 l-1.077-0.214l-1.107-0.842l-0.853-1.022l-0.344-0.756l0.155-2.668l0.369-1.1l0.698,0.366l0.289-0.415l0.703-0.738l0.299-0.409 l0.324,0.251l1.347,0.79l0.828-0.828l0.489-0.71l0.813-1.581l2.11-1.836l0.369-0.509l6.314-3.954l6.214-0.981L605.177,412.41z M502.688,414.255l0.364-0.764l0.628-0.382l0.773-0.342l0.748-0.64l0.599,0.317l1.531,1.242l-0.638,0.894l-1.187,0.043 l-1.411-0.285L502.688,414.255z M527.032,410.044l0.808,1.053l1.003,0.926l1.152,0.72l1.227,0.422l0.03,0.36l-0.1,0.093h-0.16 l-0.19,0.068l-1.057-0.441l-1.112,0.23l-0.983,0.342l-0.618-0.13l-0.913,0.922l-2.599,1.896l-0.878,0.357l-0.788,0.648 l-1.706,2.866l-0.853,0.645l-4.962,1.693l-2.643,0.214l-1.013-1.907l0.873,0.474l0.459-0.784l0.818-0.614l0.908-0.161l0.713,0.571 h0.419l0.414-0.388l0.544-0.146l1.377,0.012l0.239-0.276l0.843-1.809l-0.708,0.366l-0.374-0.419l-0.105-0.648l0.105-0.338 l0.683-0.115l7.062-3.582v-0.472l-0.354-0.186l-0.21-0.161l-0.244-0.137l-0.489-0.081v-0.522l1.696-0.497l0.728-0.441l0.499-0.624 H527.032z M470.354,408.997l-0.883-0.193l-1.202-1.075l-1.012-1.507l-0.284-1.446l0.589-1.073l1.087-0.952l1.197-0.597l0.928,0.016 l-1.122,4.006l-0.594,1.259l0.389,0.336l0.349,0.37L470.354,408.997z M447.267,402.692l0.723,1.151l2.175,2.621l0.798,2.228 l0.07,0.565l-0.19,0.292l-0.868,0.46l-0.2,0.292l-2.125,2.392l-0.908-1.453l-1.037-2.156l-0.594-2.06l0.449-1.156v-0.522 l-0.653-0.538l-0.723-1.288l-0.723-0.261l0.035-0.376l0.075-0.227l0.344-0.485l-0.244-0.068h-0.14l-0.05-0.1l-0.02-0.355h0.838 l1.456,1.219l0.588,0.28l0.504-0.454H447.267z M582.544,409.519l0.529-0.994l0.289-0.326l0.394-0.289l-0.374-1.131l0.279-0.939 l0.539-0.808l0.394-0.731l0.135-0.159l0.239-0.383l0.165-0.513l-0.12-0.554l-0.509-0.426l-0.524,0.084l-0.409,0.249l-0.234,0.093 l-0.454-0.498l-0.289-0.404l-0.549-1.189l-0.459-0.492l-0.434-0.159l-0.205-0.352l0.259-1.086l0.723,0.956l5.172,2.178v0.523 h-0.803l0.569,1.011l0.803,0.448l0.648,0.513l0.075,1.203l0.509-0.634l0.524-0.302l0.524,0.025l0.539,0.342l0.185,0.889 l-0.454,1.358l0.269,0.886l-0.304,0.513l-0.085,0.227l-0.065,0.348h0.454v-0.519h0.384l-0.439,1.097l-1.027,0.003l-1.85-0.581 l-0.314,0.454l-0.13,0.687l-0.17,0.624l-0.449,0.273l-0.599-0.143l-0.464-0.242l-0.419-0.05l-0.419,0.435l-0.449-0.696l-0.484-0.59 l-0.534-0.329L582.544,409.519z M514.868,397.47l-0.12,0.324l-0.025,0.068l-0.05,0.019l-0.224,0.162l-1.227-2.145l1.032,0.056 l0.763-0.28l1.521-0.819l-0.16,0.567l-0.224,0.477l0.539,0.788l0.299,0.258l-0.324,0.607l-0.469,0.386l-0.614,0.031L514.868,397.47 z M482.534,401.647l-0.673,0.205l-0.354,0.473l-0.269,0.659l-0.419,0.753l-0.429,0.526l-0.773,0.724l-1.701,1.234l-0.978,0.28 l-2.184-0.112l-0.584-0.252l-1.312-1.11l-0.638-0.252l-0.499-0.383l-0.02-0.874l0.609-2.937l0.758-0.902l1.895-1.167l-0.429-0.283 l-0.419-0.109l-0.409,0.084l0.878-1.28l1.746-1.448l1.915-1.115l1.776-0.598l-0.908,1.339l0.489,0.523l1.676,0.271l0.838-1.043 l-0.165-0.302l-0.254-0.788l0.838-0.069l0.828,0.069l-0.12,0.582l-0.2,0.589l-0.239,0.542l-0.269,0.42l-1.033,2.612l-0.005,1.089 l1.037,0.482v0.52h-0.838v0.573h0.838V401.647z M497.631,390.364l0.464-0.34l1.007,0.527l1.496,1.169l0.718,1.371l0.379,1.386 l0.16,3.279l-0.14,1.438l-0.599,3.143l-0.135,1.683l-1.736,3.731l-0.314,0.277l-0.429,0.093l-0.873,0.357l-2.13,2.085l-0.698,0.283 l-1.157,0.298l-0.688,0.463l-0.14-0.481l-0.239-0.102l-0.424-0.46l-0.269-0.547l-0.364-1.535l-0.204-0.572l-0.394-0.479 l-1.701-1.041l0.269-0.413l0.045-0.454l-0.17-0.479l-0.354-0.504l-0.294-0.594l-0.06-0.619l0.08-0.482l0.065-0.152l-0.928-1.867 l-0.703-0.902l-0.838-0.411v-0.476l0.349-0.339l0.299-0.131l0.264,0.106l0.304,0.364l0.623-0.467l2.304-2.671l3.995-2.897 l0.344-0.467l0.913-1.624l0.439-0.2l1.217-0.112L497.631,390.364z M431.292,391.72l-0.459-0.524l1.965-1.281l1.062-0.309 l0.778,0.496h0.419l0.284-0.402l0.314-0.084l0.344,0.159l0.344,0.327l0.364,1.075l0.16,1.374l-0.01,1.48l-0.13,1.396l-0.384-1.096 h-0.449l0.005,0.947l-0.219,0.704l-0.439,0.532l-0.604,0.43l-0.145-0.215l-0.035-0.1l-0.06-0.078l-0.18-0.177l-0.03-0.346 l0.115-0.072l0.16,0.025l0.175-0.084l-0.524-0.318l-0.539-0.122l-0.519,0.103l-0.514,0.336l-0.125-0.729l-0.16-0.284l-0.224,0.1 l-0.324,0.442l-0.519-0.333l-0.469,0.022l-0.389,0.296l-0.339,0.486l-0.21-0.894l0.17-0.193l0.529-0.48l-0.429-0.414l-0.03-0.374 l0.289-0.374l0.519-0.402l-0.209-0.567l0.12-0.246L431.292,391.72z M426.648,373.815l0.424-2.039l1.277-1.414l1.466-1.133 l1.017-1.186h0.459v1.098l-0.155,0.601l-0.419,1.089l-0.234,0.363l2.384,1.426l0.813,1.157l-0.299,1.66l-0.883-0.281l-0.648,0.847 l-0.409,1.356l-0.15,1.225l-0.858,0.846l-1.097,1.14l-1.397,0.771l-1.292,0.337l0.539-2.72l0.544-1.243l1.012-0.75v-0.478 l-0.274-0.166l-0.264-0.266l-0.299-0.141v-0.478l0.514-0.822l-0.125-0.788l-0.629-0.388L426.648,373.815z M489.606,373.337 l-0.773-0.122l-4.633,0.6l0.14-0.6l-0.025-0.225l-0.065-0.138l-0.05-0.322l0.14-0.579l0.289-0.172h0.299l0.15-0.059l0.314-1.82 l-0.244-0.626l-0.948-0.132l0.349-1.192l0.718-0.529l0.818-0.344l0.628-0.657l1.795,3.13l0.294-0.172l0.214-1.558l0.599-0.31 l1.925,0.535l0.249,0.169l0.334,0.379l0.449,0.372l1.182,0.385l0.165,0.513l-0.15,0.663l-0.359,0.669l-0.903,0.394l-1.162-0.016 l-0.972,0.328l-0.314,1.435H489.606z M461.915,372.005l0.165,0.191l0.384,0.256l0.419,0.369l0.279,0.516l0.15,0.797l-0.13,0.463 l-0.459,0.363l-3.696,1.95l-0.883,0.625l-0.03-0.747l0.05-0.547l0.15-0.428l0.249-0.375v-0.572l-0.409,0.044l-1.267-0.044 l0.165-0.694l0.254-0.569l0.359-0.463l0.479-0.375l-0.249-0.1l-0.589-0.375l1.137-0.269l0.698-1.029l0.279-1.314l-0.02-1.108 l-0.374-1.674l-0.055-0.654l0.589-0.028l1.516,0.207l0.559,0.645l0.569,1.089l0.429,1.148l0.15,0.842l-0.16,0.544l-0.589,0.713 L461.915,372.005z M470.982,360.688l-0.658-0.329l-2.055-2.351l-2.354-1.11l-0.658-0.47l-0.424-0.624l-0.404-0.928l-0.18-0.941 l0.209-0.665l0.798-0.232l3.391,0.232l0.279,0.119l0.589,0.364v0.571h-0.459v0.527l0.623,0.044l0.454,0.22l0.354,0.351l0.284,0.439 l0.973-0.699l1.162,0.16l1.047,0.69l0.589,0.9l0.943-1.138l1.706,0.348l1.86,0.884l1.387,0.433l-0.419,0.527l0.524,0.191 l0.334,0.477l0.234,0.665l0.165,0.774l-1.506,2.09l-0.454,1.961l-0.693,0.348l-2.823-0.441l-1.706-1.084l-1.018-0.244l-0.608-0.326 l-0.753-1.41L470.982,360.688z M427.067,352.698l1.701,2.353l-0.414,2.396l-1.571,2.276l-1.805,1.968l-1.696,2.412l-1.197,0.965 l-1.107-0.46l-0.015-1.071l0.294-3.863l-0.085-0.658l-0.03-1.43l0.688-1.731l1.003-1.195l0.918,0.191l0.444-0.511l0.364-0.587 l-0.628,0.041l-0.18-0.041v-0.483l0.598-0.395l0.569-0.176l0.509,0.107l0.384,0.464h0.419l0.035-0.477l0.18-0.082l0.279,0.057 L427.067,352.698z M464.878,346.375l0.165,1.09l-0.544,1.397l-0.878,1.337l-0.838,0.92l0.13,0.32l0.249,1.259h-0.379l-0.479-0.76 l-1.396-1.08l-0.668-0.747l-1.137-3.241l-0.329-0.496l-0.943-0.1l-0.703-0.333l-0.629-0.584l-0.658-0.852l-0.987-1.92l-0.708-0.509 l-1.017,0.61l-0.354-2.15l-1.132-1.425l-1.337-1.095l-0.943-1.186h-0.419l-0.434,0.761l-0.519,0.217l-0.244-0.406l0.359-1.101 l-0.534-0.617l-0.848-1.398l-0.713-0.623l0.723-0.22l0.055-0.365l-0.239-0.529l-0.155-0.712l0.214-0.734l0.509-0.532l3.377-1.853 l1.352-0.284l0.898,0.476l-0.085,0.832l0.145,0.482l0.359,0.217l0.613,0.053l0.628,0.252l0.569,0.564l0.279,0.564l-0.239,0.252 l-0.02,0.372l0.439,1.722l0.199,0.501l0.464,0.321l1.631,0.686h4.833l0.604,0.711l-0.279,1.579l-0.968,2.554l2.544,2.113 l-0.399,0.349l-0.17,0.104l-0.269,0.075l0.05,0.987l-0.394,0.66l-0.444,0.509l-0.05,0.528l0.419,0.437l0.988-0.405L464.878,346.375 z M622.628,462.787l3.112,0.175l0.155,0.354l-0.02,0.745l-0.259,0.637l-0.264,0.24l-0.474-0.034l-1.197,0.332l-0.878-0.197 l-1.102-0.055l-1.167,0.314l-0.773-0.388l-0.09-1.062l0.559-0.693l0.439-0.138l0.918-0.166L622.628,462.787z M599.347,434.671 l0.544,0.665l0.698,1.506l-0.494,1.428l-1.436,0.59l-0.808,0.012l-1.302-0.216l-0.638-0.479l-0.219-0.801l0.678-1.521l1.81-1.138 L599.347,434.671z M580.105,395.122l0.374,0.393l0.549,0.947v0.835l-0.439,0.143l-0.259,0.009l-0.02,0.277l-0.324,0.156 l-0.509,0.056l-0.713-0.087l-0.758-0.479v-0.567l0.678-0.439l0.224-0.514l-0.569-0.044l-0.813,0.492l-0.768-0.087l-0.419-0.729 l0.234-0.67l0.165-0.645l-0.643-0.393l-0.693-0.29l-0.414-0.505l-0.743-0.583l-0.214-0.997l0.703-0.673l0.848,0.069l0.185-0.153 l-0.045-0.514l0.489-0.075l0.549,0.418l0.359,0.115l0.229-0.072l0.249,0.109l0.234,0.134l0.389,0.146l0.534,0.14l0.19,0.424 l-0.409,0.81l-0.13,0.704l0.623,0.268l0.614,0.399l0.339,0.941L580.105,395.122z M563.372,378.156l0.299,0.459l0.15,0.759 l-0.324,0.169l-0.329-0.328l-0.414-0.244l-0.229-0.063l-0.224-0.087l-0.544-0.031l-0.534,0.419l-0.244,0.562l-0.08,0.356 l-0.229,0.2l-0.359,0.044l0.309,0.512l0.693,0.88l0.155,2.591l-0.638,0.262l-0.668-0.456l0.06-0.496l-0.16-0.365l-0.738-0.256 l-0.254-0.69l0.324-1.873l0.215-0.487l0.09-0.509l-0.184-0.687l-0.13-1.043l0.165-0.925l0.534-0.031l0.693,0.081l0.748-0.181 l0.733,0.331l0.599,0.434l0.389,0.403L563.372,378.156z M449.417,358.281l-0.1,0.461l0.209,0.937l-1.417,0.163l-2.803-0.533 l-0.778-0.492l1.117-0.197l0.987-0.442l0.604-0.734l0.748-0.489l1.032-0.078l0.499,0.474L449.417,358.281z" style="fill: rgb(132, 132, 132); stroke: rgb(0, 0, 0); stroke-width: 1px;">
      <title>South Aegean</title>
    </path>
    <path class="st5" d="M548.868,352.698l-1.077,2.064l-1.561,1.944l-5.421,4.846l-1.027,0.479l-5.267,0.717l-1.207,0.52l-0.633,0.482 l-1.202,1.171l-0.668,0.445l-0.584,0.197l-0.434-0.019l-0.494-0.113l-0.793-0.066l-2.394,0.664l-0.883-0.219l-0.274-1.497 l0.484-1.015l2-2.03l0.449-0.871l0.409-1.116l0.958-1.248l1.122-1.053l0.853-0.555l1.516-0.091l3.521,0.483l1.277-0.392 l1.237,0.433l1.825-0.564l1.656-0.957l1.626-1.807l2.015-0.596L548.868,352.698z M590.873,349.537l0.688-0.506l0.399,0.364 l0.08,0.829l-0.329,0.895l-1.486-0.474l-2.214,0.483l-5.566,2.203l-0.569,0.358l-0.668,0.634l-0.369,0.543l-0.12,0.395l-0.19,0.32 l-0.579,0.323l-0.519,0.1l-3.89-0.1l-0.608-0.194l-0.249-0.477l-0.14-0.612l-0.244-0.583l-0.992-1.603l-0.609-0.54l-1.451-0.377 l-0.663-0.757l-0.504-0.169l-0.544,0.085l-0.967,0.358l-1.616,0.226l-1.003,0.421l-0.763,0.678l-0.339,0.91h-0.454v-0.571h-0.384 l-0.663,0.7l-0.544-0.762l-0.369-1.318l-0.135-0.967l-0.065-1.859l0.229-0.886l0.673-0.704l1.047-0.327l1.092-0.157l0.858-0.368 l0.349-0.99l0.519-0.585l6.972-1.647l2.12-0.031l2.185,0.415l0.838,0.5l1.601,1.336l2.135,0.584l2.369,1.615l0.658,0.707 l0.234-0.851l-0.349-0.675l-0.604-0.697l-0.569-0.94l1.013,0.333l0.738-0.006l0.608-0.314l0.604-0.585l0.035,0.936l1.656,0.528 l2.873,0.214l-1.751,0.798l-0.334,0.207l-0.1,0.634l0.239,0.55l0.374,0.622L590.873,349.537z M536.698,286.254l-0.778,0.965 l-0.105,1.555l-0.294,1.371l-1.377,0.419l0.479,0.707l0.259,0.2l0.519,0.152l-0.369,0.485l1.082,0.035l0.03,0.498l-0.743,1.113 l-0.185,1.18l-0.005,0.98l0.648,5.864l0.838,3.185l-1.626,0.234l-1.441,1.196l-0.693,1.753l0.603,1.882v1.157l-1.466,0.778 l-2.948,0.964l-0.489,0.815l-0.379,1.75l-0.379,0.613l-0.609,0.196l-1.267-0.55l-0.873-0.171l-0.628-0.455l-1.362-1.795 l-0.254-0.117l-0.254,0.076l-0.589-0.591l-0.589-0.926l-0.274-0.926l-0.284,0.149l-0.698,0.199l-0.279,0.142l0.03-0.528 l-0.06-1.075l0.03-0.522l-1.013,0.642l-0.444-0.462l0.09-1.091l0.534-1.211l0.594-0.513l0.798-0.297l1.122-0.253l0.329-0.25 l0.713-0.813l1.501,0.111l0.344-0.111l0.399-0.911l0.035-0.956l0.254-0.823l1.018-0.494l-0.319-0.874l0.125-1.907l-0.224-0.992 l-0.11,0.314l-0.01,0.076l-0.07,0.013l-0.259,0.133l-0.279-0.589l-0.369-0.45l-0.469-0.33l-0.559-0.228l0.344-0.691l-0.045-1.065 l-0.309-1.119l-0.409-0.847l-0.733-0.761l-0.688-0.254l-0.808-0.146l-1.082-0.438l-0.893-0.749l-1.96-2.478l-0.529-1.032 l-0.115-1.213l0.329-0.864l0.434-0.838l0.224-1.131l8.977-1.862l1.257,0.172l2.948,0.937l0.14,0.534l2.573,3.154l0.16-0.343 l0.09-0.353l0.19-0.27l0.399-0.102l0.04-0.343l-0.075-0.114l-0.15-0.019l-0.194-0.057l0.918-0.305l0.788,0.219l0.673,0.657 L536.698,286.254z M501.476,280.873l0.389,0.607l1.661,1.573l0.03,0.368l-0.09,0.102h-0.174l-0.22,0.064l-0.479,2.773l-0.13,0.476 l-0.848-0.156l-0.633-0.254l-0.568-0.051l-0.658,0.46l-0.21-0.724l0.115-0.518l0.16-0.438l-0.065-0.502l-0.244-0.353l-0.708-0.715 l-0.299-0.534l-0.748-0.62l-0.304-0.442l0.18-0.534l0.419-0.207l0.384,0.175l0.289,0.324l0.165,0.242l0.364-0.547l0.459-0.385 l0.479-0.054l0.409,0.451h0.384v-0.585H501.476z M564.2,246.59v0.71l-0.14,1.359l-0.773,0.863l-1.826-0.786l-0.992,0.543 l-0.738-0.339l-0.604-0.723l-0.628-0.607l0.449-0.486l-0.554-0.396l-0.09-0.403l0.12-0.406l0.075-0.403l0.065-0.266l0.349-0.857 l0.035-0.49l-0.703-0.595l-0.13-0.259l-0.439-1.171l-1.017-0.352l-2.105,0.179l-1.097,0.621l0.978,1.344l2.389,1.846l2.259,3.29 l1.122,0.949v0.585l-0.155,0.339l-0.055-0.013l0.06,0.09l0.15,0.658l-1.591,0.7l-1.955,0.502l-3.99,0.409l-1.047-0.166 l-1.955-0.741l-2.194-0.31l-0.848-0.38l-1.516-1.087l-1.496-0.716l-3.631-0.789l-3.152-0.134l-0.638-0.201l-0.549-0.563 l-1.885-2.718l-0.693-0.624l-1.003-0.202v-0.49l0.359-0.144l0.509-0.442l0.439-0.141l0.264,0.045l0.224,0.086l0.289,0.01 l2.344-0.538l0.269-0.23l0.987-1.623l0.658-0.496l0.673-0.118l0.693-0.019l0.728-0.195l1.636-1.614l1.836-1.381l0.07-0.231 l0.618-0.343l-0.2-0.756l-0.623-0.763l-0.628-0.34l-1.97-0.481l-0.738-0.058l-1.302,0.141l-1.042,0.295l-0.858,0.555l-0.808,0.92 l-0.913,2.178l-0.174-0.006l-2.758,3.941l-0.898,0.826l-1.152,0.336l-1.287-0.182l-5.187-1.924l-0.888-0.531l-0.888-0.695 l-0.578-0.304l-0.793-0.122l-1.107-0.477l-2.12-2.152l-1.207-0.596v-0.586l0.693-0.26l0.244-0.712l0.1-0.904l0.219-0.818 l-0.259-0.083l-0.16-0.128l-0.15-0.154l-0.234-0.167l0.474-0.327l0.229-0.333l0.09-0.481l0.01-0.77l0.215-0.548l0.494-0.318 l0.584-0.218l0.419-0.234l1.691-1.627l0.404-0.578h0.419l0.753,1.608l1.995-0.164l2.284-0.607l1.656,0.289l0.249-0.44l0.239-0.327 l0.209-0.353l0.14-0.497l0.344,0.722l0.075,0.356h0.419l0.768-1.082l1.282-0.575l2.599-0.453l1.616-0.584l0.599-0.928l-0.1-1.407 l-0.449-2.024l10.997-0.328l1.172,0.328l-0.454,1.764l1.142,0.758l1.646,0.446l1.057,0.851l-0.374,0.751l-1.945,3.02l0.155,0.44 l2.574,2.521l2.095,0.853l0.489,0.398l0.269,0.321l2.085,3.164l0.808,0.711l1.337,0.788l-0.803,0.538l0.254,0.669l0.429,0.596 l0.574,0.608l0.035,0.788l0.174,0.48l0.384,0.182l0.663-0.099l-0.085,1.588l0.808,1.779l1.132,1.452L564.2,246.59z M466.135,205.993l2.155,1.466l-0.429,1.961l-2.982,4.239h-0.419l-0.688-3.769l0.18-1.823l1.307-0.992l-0.21-0.632l0.14-0.3 l0.394-0.1L466.135,205.993z M492.958,168.464l-0.534,0.808l-0.269,0.282v0.496l0.299-0.036l0.065,0.136l-0.01,0.234l0.2,0.713 l0.09,0.791l0.16,0.383l-1.431,0.814L490,174.236l-0.983,1.542l0.204,1.982l-0.843-0.019l-0.678,0.201l-0.529,0.369l-0.459,0.489 l0.838,0.521l0.419,0.071l-0.938,0.505l-0.708,0.699l-0.08,0.767l0.928,0.689l-0.778,0.867l0.344,0.867l0.753,0.809l0.479,0.718 l0.085,0.589l-0.075,0.065l-0.284,0.026l-0.524,0.456l-0.11,0.563l-0.055,0.786l-0.234,0.446l-0.648-0.465l-0.379-0.204 l-1.756-0.582l-0.509-0.339l-0.1-0.747v-0.747l-0.204-0.34l-1.052-0.391l-1.013-1.608l-1.092-0.172l1.406-0.984l0.768-0.767 l0.339-0.719l-0.284-1.156l-0.683-0.768l-0.818-0.418l-0.728-0.078l-2.554,2.124l0.569-0.007l0.459,0.087l0.374,0.198l0.314,0.311 l-1.092,0.181l-0.803,0.757l-0.589,1.097l-0.449,1.174l0.509-0.239l0.13-0.081l0.2-0.223l0.688,0.864l0.758,1.297l0.399,1.171 l-0.399,0.521l-1.337-0.078l-1.082-0.21l-1.95-0.799l1.381-2.212l0.254-0.281l-0.309-0.844l-0.678,0.262l-0.708,0.77l-0.399,0.676 h-0.419l-0.03-0.621l-0.105-0.34l-0.145-0.262l-0.14-0.404l-3.551,1.107l-0.668,0.521h-0.379l0.209-0.505l0.215-0.411l0.314-0.362 l0.509-0.349l-0.344-0.149l-0.444-0.32l-0.459-0.126l0.09-0.689l-0.09-0.346l0.379-0.33l0.409-0.214v-0.589h-0.409v-0.492 l0.279-0.097l0.169-0.117l0.419-0.379h-0.459l0.509-1.143l-0.259-0.693l-0.578-0.593l-0.459-0.836l-0.06-1.128l0.095-1.06 l-0.135-0.778l-0.738-0.298v-0.545l2.16-0.13l3.905-0.953l0.613,0.165l0.394,0.366l0.259,0.373l0.2,0.178l0.958-0.136l3.262-0.947 l1.362,0.512l0.838,0.918l0.693,1.157l0.908,1.219l-0.12,0.616l1.337-0.531l1.671-0.982l0.843-0.736v-0.694l1.307-1.907 l0.783-0.662l0.239,0.052l1.646-0.052l0.534-0.143L492.958,168.464z" style="paint-order: stroke; fill: rgb(132, 132, 132); stroke: rgb(0, 0, 0); stroke-width: 2px;">
      <title>North Aegean</title>
    </path>
    <path class="st0" d="M214.194,344.505l1.018,2.096l4.219,2.732l0.584,2.361l-0.813-1.004l-1.761-0.892l-2.05-0.603l-1.656-0.138 l-0.903,0.405l-0.568,0.7l-0.404,0.659l-0.419,0.298l-0.793,0.399l0.015,0.898l0.344,0.897l0.224,0.439l-0.105,1.016l-0.274,0.47 l-0.668,0.138h-1.277l-0.444-0.351l-1.88-2.328l-3.027-2.486l-1.436-1.532l-0.135-1.25l-1.332-1.191l-2.329-3.177l-1.407-0.905 l0.429-0.896l-0.269-1.305l0.344-0.487l-0.504-0.525l2.484-3.568l1.576-1.473l1.426,0.337l0.045,0.246l0.005,0.189l0.279,0.337 l-0.045,0.164l1.257,2.417l0.479,1.516l0.643,0.572l1.516,0.893l1.94-0.481l2.529,1.016l2.2,1.735L214.194,344.505z M203.91,323.616l-0.928-0.303l-0.788-0.722l-1.466-1.72l-1.756-1.035l-2.354-0.672l-2.075,0.338l-0.968,1.95l-1.137-0.909 l-2.244-0.679l-0.838-1.061l-0.189-0.691l-0.12-1.44l-0.11-0.569l-1.003-1.772l-0.254-0.831l0.763,0.205l1.023,1.027l0.728,0.36 v-0.575l-0.978-0.935l-0.608-1.176l-1.646-4.224l-0.718-1.164l-0.628-0.202l-0.439,1.332l0.02,1.252l0.479,2.57l-0.08,1.53 l-0.578,1.358l-0.793,0.556l-0.853,0.395l-0.748,0.872h-0.379l-0.369-1.336l-1.756-1.017l-0.389-1.403l0.244-0.642l0.479-0.777 l0.374-0.787l-0.09-0.692l-0.239-0.655l0.135-0.569l0.344-0.43l0.389-0.225l0.853-0.958l0.763-2.031l0.374-2.535l0.105-2.441 l0.339,1.108l0.08,0.488h0.419l0.838-1.539l0.479,0.557l0.459,1.438l0.768,1.14l0.499-0.655l0.229,0.453l0.214,0.82l0.524,0.44 l0.613-0.253l1.072-1.127l1.426-0.798l0.549-1.292l0.05-1.568l-0.529-1.388l1.247,0.535L192,295.934l-0.09-0.58l0.12-1.027 l0.199-0.837l0.04-0.714l-0.359-0.666v-0.485h2.085l3.312,9.518l0.115,0.636l-0.095,1.178l-0.369,0.639l-0.578,0.532l-0.708,0.836 l0.494,0.709l1.431,2.765l0.758,0.354l0.863-0.708l0.838-0.993l0.673-0.531l-0.135,0.266l-0.165,0.544l-0.12,0.304l1.147,0.247 l0.369,0.8l0.15,1.066l0.429,1.062l2.593,2.345l0.668,2.047l2.174,3.035l0.449,1.203l0.17,1.259l-0.19,1.287l-0.613,1.306 l-0.329,0.085l-1.571-0.379l-0.568,0.085l-0.673,0.401L203.91,323.616z M202.823,298.006l0.748,0.219l0.658,0.387l1.147,0.992 l-0.294-0.041l-0.928,0.041l0.374,2.112l0.389,0.754l0.838,0.326v0.579l-1.691,0.234l-1.022,0.345l-0.833-0.206l-1.102-1.437 l0.459-0.532l-0.913-0.998l-0.803-1.178l-1.207-2.658l-0.115-0.593l-0.165-1.772l-0.18-0.824l-0.464-0.45l-0.688-0.469 l-0.419-0.679l0.304-1.114l0.983,0.657l0.534-0.444l0.628-1.809l1.067,0.336l0.135,0.977l-0.364,1.12l-0.429,0.761l1.047-0.076 l0.673,0.301l0.544,0.46l0.668,0.428l-0.374,1.604l-0.474,1.35l-1.247,2.415l0.464,0.291l0.613,0.203l0.703,0.063l0.733-0.079 v-0.478l-0.838-0.583h1.247L202.823,298.006z M216.628,281.457l-1.337,1.964l-0.608,1.261l-0.11,1.086h-0.838v-0.581l2.344-3.634 L216.628,281.457z M194.833,280.389l-0.568,0.776l-0.658,1.115l-0.868,1.887h-0.409l0.02-1.967l1.067-7.542l1.157-2.591 l0.259-1.582l1.047-2.908l0.589-0.322l0.499-0.765l0.798-1.641l0.733-0.912l1.142-1.004l1.372-0.711l0.145,0.281l0.095,0.402 l0.733,0.344l0.958,1.119l0.254,1.202l0.06,1.112l0.394,0.895l-0.334,0.921l0.035,0.749l0.19,0.646l0.11,0.592l0.025,0.685 l-0.055,0.408l-0.23,0.465l-1.446,2.088l-0.279,0.636l0.11,0.55l0.449,0.188l0.289-0.598l0.289-0.866l0.429-0.637l0.085,1.158 l-0.195,4.224l-0.289,0.89l-0.399,0.105l-0.449-0.995h-0.419l0.13,0.366l0.289,1.237l-0.239-0.191l-0.638-0.343l-0.04,0.585 l-0.115,0.311l-0.135,0.254l-0.09,0.451l-1.032-0.521l-0.973,0.181l-0.494,0.626l0.414,0.823v0.486l-0.653-0.067l-0.374-0.286 l-0.1-0.512l0.249-0.731l-1.207-0.216l-0.693-1.545L194.833,280.389z M167.556,231.445l0.933,1.039l1.087,0.888l1.027,1.151 l0.723,1.811l-1.252-0.042l-0.783-0.208l-0.613-0.5l-1.242-1.586l-0.633-1.09l-0.17-1.016L167.556,231.445z M164.593,216.303 l0.294,0.849l0.544,2.392l0.733,1.147l0.015,0.553l-0.748,0.501l-0.544-0.466l-1.521-0.453l-1.421-1.051l-1.008-0.427l-1.072-0.257 l-0.958-0.087l-0.544-0.309l-1.566-1.398l-0.613-0.405l-1.047-0.141l-0.853,0.013l-0.738-0.206l-0.264-0.37l0.454,0.087 l0.419-0.309l0.354-0.74l-2.13-0.695l-0.798-0.38l-0.03,0.193l-0.03,0.296l0.01,0.109l-0.818-1.216l-0.658-1.612l-0.439-1.638 l-0.419-3.349l-0.733-1.611l-1.167-1.325l-1.571-1.199l-1.421-0.696l-0.763-0.558l-1.646-3.661l-0.17-0.545l-1.072,0.019 l-0.718-0.103l-0.514-0.465l-0.429-1.075l0.165-1.837l-0.324-0.584l-1.137,0.746l0.025-1.25l-0.21-0.901l-0.524-0.491l-0.928-0.023 l0.608-0.649l1.586-2.23l0.319-0.718l0.579-0.129l5.686-0.233l1.8-0.375l1.586-0.689l1.646-1.038l0.843,0.278l0.569,0.453 l0.499,0.511l0.604,0.436l1.591,0.524l0.623,0.378l0.329,0.724h0.419v-0.588h0.419l-0.105,2.472l-0.768,1.434l-1.277,0.849 l-3.761,1.582l-0.613,0.504l-0.344,0.93l0.195,0.997l0.524,0.784l0.673,0.297v0.587h-0.838v0.49l3.606,1.871l1.451,0.297 l-0.244,1.728l-0.389,0.367l-1.042-0.422l0.718,1.647l1.262,8.286l0.249,0.454l0.703,0.473l0.823,0.318l1.716,0.36l0.813,0.347 l1.287,1l0.554,0.164l1.087-0.084l0.898-0.331l0.549-0.351l0.479,0.129L164.593,216.303z M216.878,277.687l0.399,0.255l0.075,0.811 l-0.688,0.897l-0.773,0.629l-0.888,0.524l-0.519,0.222l-0.489,0.292l-0.683,0.756l-0.509,0.931l-0.494,0.149l-0.2-0.759l0.17-0.88 l1.117-1.99l0.948-1.078l1.077-0.417L216.878,277.687z M208.04,276.688l0.249-0.032l0.02,0.293l-0.209,0.41l-0.324,0.439 l-0.494,0.496l-1.576,0.439l-0.199,0.916l0.838,0.696l0.509,0.515l0.1,0.197l0.459,0.324l0.574,0.763l-0.793-0.34l-2.169-2.05 l-0.903-2.041l0.579-0.884l0.953-0.203l1.292-0.697l0.329,0.324l0.264,0.172l0.299-0.105l0.135,0.095l-0.06,0.239L208.04,276.688z" style="fill: rgb(132, 132, 132); stroke: rgb(0, 0, 0); stroke-width: 1px;">
      <title>Ionian Islands</title>
    </path>
  </g>
</svg>